<svg viewBox="0 0 24 20" xmlns="http://www.w3.org/2000/svg"><title>Page 1</title><path d="M17.546 1.814c-.646.123-.918.611-.775 1.25.149.66.653 1.04 1.341.906.5-.096.807-.65.708-1.31-.099-.658-.517-.99-1.274-.846zm1.609 5.491l.052-.002c.558-.025.78-.05.944-.111.043-.016.143-.085.28-.209.033-.03.067-.06.102-.095a2.857 2.857 0 0 1-.423.192l-.073.025a4.851 4.851 0 0 1-.882.2zm-.84.064c-.281.01-.603.013-.984.014h-.178c-1.187.004-1.771.068-2.246.283-.216.098-.497.275-.834.525a15.14 15.14 0 0 0-.54.423c-.197.161-.92.771-1.07.893-.025.02-.529.42-.675.54-.72.596-1.067 1.031-1.106 1.37-.062.55.102.828.8 1.442l.291.255c.611.538.973.932 1.278 1.48l.27.485-.268.485c-.277.5-.615.844-1.19 1.308l-.261.209c-.469.378-.575.527-.57.721a.142.142 0 0 0 .13.139c.146-.037.43-.26.814-.667.058-.062.559-.618.697-.756.109-.11.228-.218.39-.36.039-.033.31-.266.387-.335.514-.45.73-.735.73-.844.001-.043-.241-.427-.623-.889a3.384 3.384 0 0 0-.153-.155l-.315-.307-.11-.109a5.3 5.3 0 0 1-.423-.467c-.256-.329-.39-.587-.343-.997.063-.582.344-.837 1.372-1.612l.201-.15c.307-.226 1.088-.78 1.113-.8.152-.122.915-.786.9-.772.128-.11.245-.208.358-.3.576-.468 1.026-.763 1.47-.904.22-.07.44-.116.688-.148zm0 0c.177-.024.369-.04.585-.052l.255-.012a8.66 8.66 0 0 1-.84.064zm-7.74-1.865c-.78.16-1.635.485-2.687.974l-.57.267c-2.189 1.03-3.61 1.524-5.166 1.551.622 1.697 1.564 2.9 2.882 3.645a18.443 18.443 0 0 0 1.699-1.614c.056-1.488.729-2.414 2.124-3.476.017-.013.64-.479.816-.616l.096-.076c.092-.074.493-.402.806-.655zm-1.343 8.535a76.265 76.265 0 0 1-2.3 2.206c-.169.155-.97.834-1.147.99a9.882 9.882 0 0 0-.678.65c-.29.312-.426.538-.426.533 0 .08.008.087.2.053-.044.008.096-.085.292-.259a9.9 9.9 0 0 0 .22-.2c.051-.05.236-.224.271-.258a8.73 8.73 0 0 1 .282-.256c.442-.382.75-.654 1.503-1.327l.02-.017c.642-.573.977-.87 1.394-1.23.093-.08.2-.16.362-.277l.364-.26-.169-.164-.021-.02-.167-.164z" stroke="#F9A61A" stroke-width="2" fill="none"/></svg>