<svg viewBox="0 0 42 36" xmlns="http://www.w3.org/2000/svg"><title>Page 1</title><g fill="none" fill-rule="evenodd"><path d="M20.316 1C30.98 1 39.63 7.979 39.63 16.586c0 3.43-1.379 6.602-3.715 9.182l3.59 8.921-15.212-3.054c-1.586.041-3.37.427-5.153.471-.203.003-.406.006-.6.006C8.2 32.112 1 25.024 1 16.586 1 7.979 9.644 1 20.316 1" stroke="#F9A61A" stroke-width="2"/><path d="M19.962 20.088c-.506-6.772-.857-10.993-1.052-12.662.621-.17 1.47-.253 2.543-.253 1.012 0 1.551.309 1.618.926.067.616-.162 4.613-.686 11.989h-2.423zm1.145 5.526c-.764 0-1.325-.162-1.684-.486-.36-.324-.54-.792-.54-1.404 0-.614.2-1.08.6-1.4.4-.318.94-.478 1.624-.478.772 0 1.338.16 1.698.479.36.32.54.785.54 1.399 0 .612-.2 1.08-.6 1.404-.4.324-.946.486-1.638.486z" fill="#231F20"/></g></svg>