<?xml version="1.0" encoding="UTF-8" standalone="no"?>
<svg  viewBox="0 0 7 11" version="1.1" xmlns="http://www.w3.org/2000/svg" xmlns:xlink="http://www.w3.org/1999/xlink">
    <!-- Generator: Sketch 46.2 (44496) - http://www.bohemiancoding.com/sketch -->
    <title>Page 1</title>
    <desc>Created with Sketch.</desc>
    <defs></defs>
    <g id="Mobile" stroke="none" stroke-width="1" fill="none" fill-rule="evenodd">
        <g id="page_menu_catalog_320-copy" transform="translate(-285.000000, -104.000000)" fill="#f9a61a">
            <g id="Page-1" transform="translate(288.500000, 109.000000) rotate(-90.000000) translate(-288.500000, -109.000000) translate(283.000000, 106.000000)">
                <path d="M8.72701494,0.341116042 C9.00591968,-0.02342681 9.51037009,-0.0689193015 9.8555255,0.242698151 C10.2013732,0.551710356 10.2541079,1.09243716 9.97632002,1.45678307 C9.97632002,1.45678307 7.66624608,3.79213487 6.51120911,4.95981077 C6.29767483,5.17568164 5.87060626,5.60742338 5.87060626,5.60742338 C5.59281842,5.97176929 5.08927258,6.01586069 4.74119113,5.70724236 C4.39646037,5.39803322 4.34218413,4.85509505 4.62395963,4.49377078 L8.72701494,0.341116042 Z" id="Combined-Shape-Copy"></path>
                <path d="M4.45119663,0.341118506 C4.73010136,-0.0234243461 5.23455178,-0.0689168376 5.57970719,0.242700614 C5.92555485,0.55171282 5.97828954,1.09243962 5.7005017,1.45678553 C5.7005017,1.45678553 3.39042776,3.79213734 2.23539079,4.95981324 C2.02185651,5.17568411 1.59478795,5.60742584 1.59478795,5.60742584 C1.31700011,5.97177176 0.813454267,6.01586316 0.465372816,5.70724483 C0.120642055,5.39803568 0.0663658136,4.85509752 0.348141318,4.49377325 L4.45119663,0.341118506 Z" id="Combined-Shape-Copy-2" transform="translate(3.022956, 2.974030) scale(-1, 1) translate(-3.022956, -2.974030) "></path>
            </g>
        </g>
    </g>
</svg>