<svg viewBox="0 0 16 16" xmlns="http://www.w3.org/2000/svg"><title>Fill 1</title><path d="M16 6.416c-.936 1.405-1.97 2.706-2.913 4.105-.022 1.72.04 3.356.03 5.064-1.157-.37-2.274-.812-3.481-1.223-.371-.126-.852-.349-1.188-.349-.356 0-.809.248-1.188.379-1.163.403-2.33.787-3.48 1.193-.013-1.29.029-2.457.029-3.784 0-.406.076-.895 0-1.251-.071-.335-.5-.723-.736-1.046-.757-1.05-1.508-2.088-2.149-3.088 1.19-.374 2.292-.715 3.48-1.105.367-.121.844-.196 1.13-.378.243-.155.527-.683.736-.99.703-1.03 1.484-2.087 2.122-3.055.018-.03.02-.078.056-.089.72 1.02 1.408 2.017 2.15 3.115.217.323.47.803.736.99.272.193.8.29 1.16.407 1.153.378 2.33.753 3.506 1.105" fill="#B7B7B7" fill-rule="evenodd"/></svg>