<?xml version="1.0" encoding="UTF-8" standalone="no"?>
<svg viewBox="0 0 62 52" version="1.1" xmlns="http://www.w3.org/2000/svg" xmlns:xlink="http://www.w3.org/1999/xlink">
    <!-- Generator: Sketch 46.2 (44496) - http://www.bohemiancoding.com/sketch -->
    <title>Group 2</title>
    <desc>Created with Sketch.</desc>
    <defs></defs>
    <g id="Pad" stroke="none" stroke-width="1" fill="none" fill-rule="evenodd" opacity="0.5">
        <g id="page_first_768_01" transform="translate(-683.000000, -320.000000)">
            <g id="Group-2" transform="translate(684.000000, 321.000000)">
                <path d="M52.2050235,42.6776695 C42.4419162,52.4407768 26.6127918,52.4407768 16.8496845,42.6776695 L0.588770465,26.4167555 C-0.193681998,25.634303 -0.198827429,24.3708424 0.588770465,23.5832445 L16.8496845,7.32233047 C26.6127918,-2.44077682 42.4419162,-2.44077682 52.2050235,7.32233047 C61.9681308,17.0854378 61.9681308,32.9145622 52.2050235,42.6776695 Z" id="Callout-Background" stroke="#000000" stroke-width="2"></path>
                <g id="Page-1" transform="translate(31.500000, 25.000000) rotate(-90.000000) translate(-31.500000, -25.000000) translate(24.500000, 14.500000)" fill="#000000">
                    <path d="M6.96901644,20.1798337 C7.31795195,20.2069818 7.67317556,20.069658 7.91310705,19.7790332 C7.91310705,19.7790332 8.51312525,19.2149563 8.81313435,18.9329179 L13.6815087,14.3561612 C14.0732825,13.8816124 14.0097935,13.1856318 13.5356427,12.7935301 C13.0624985,12.3980584 12.3620506,12.4656946 11.9687241,12.9405172 L6.96901644,17.6459278 L1.96930876,12.9405172 C1.5759823,12.4656946 0.875534322,12.3980584 0.402390146,12.7935301 C-0.0717606207,13.1856318 -0.135249679,13.8816124 0.256524215,14.3561612 C0.256524215,14.3561612 3.50210709,17.4073323 5.12489852,18.9329179 C5.42490762,19.2149563 6.02492582,19.7790332 6.02492582,19.7790332 C6.26485731,20.069658 6.62008092,20.2069818 6.96901644,20.1798337 Z" id="Combined-Shape"></path>
                    <path d="M7.06959998,0.00946742187 C6.45946496,-0.0698918389 5.90715753,0.358332842 5.82728363,0.968499667 C5.82728363,0.968499667 5.80928054,13.1373481 5.80027899,15.3646295 C5.79861486,15.776392 5.79528658,16.599917 5.79528658,16.599917 C5.71541268,17.2100839 6.14411087,17.7663085 6.75596315,17.8483121 C7.36523953,17.9263492 7.92104251,17.4977342 7.99438514,16.8861695 L8.03073637,1.25568409 C8.10975164,0.644195086 7.68151327,0.0857920682 7.06959998,0.00946742187 Z" id="Combined-Shape-Copy-3"></path>
                </g>
            </g>
        </g>
    </g>
</svg>