<?xml version="1.0" encoding="UTF-8" standalone="no"?>
<svg viewBox="0 0 29 20" version="1.1" xmlns="http://www.w3.org/2000/svg" xmlns:xlink="http://www.w3.org/1999/xlink">
    <!-- Generator: Sketch 46.2 (44496) - http://www.bohemiancoding.com/sketch -->
    <title>Fill 1</title>
    <desc>Created with Sketch.</desc>
    <defs></defs>
    <g id="Mobile" stroke="none" stroke-width="1" fill="none" fill-rule="evenodd">
        <g id="page_main_320-copy" transform="translate(-69.000000, -5360.000000)" fill="#B7B7B7">
            <g id="Group-21" transform="translate(0.000000, 4804.000000)">
                <g id="Group-7" transform="translate(62.000000, 498.000000)">
                    <g id="Page-1" transform="translate(1.000000, 48.212490)">
                        <path d="M30.793018,20.9895686 C30.874219,20.9174118 30.8103619,21.015451 30.8726423,20.8719216 L31.0184889,20.3636863 C31.8029069,20.3393725 32.3445101,20.2797647 32.9783513,20.0287843 L34.2846635,19.1393725 C33.8526423,19.133098 33.3977587,19.2491765 32.6945418,19.1409412 L31.2691873,18.8436863 C31.3866529,18.7699608 31.5679757,18.7668235 31.7343196,18.7425098 C31.9053937,18.7174118 32.0528169,18.6938824 32.2215259,18.6546667 C32.550272,18.5785882 32.7907217,18.5048627 33.0666476,18.3785882 L34.1616794,17.3127059 C33.6618593,17.5087843 33.2093407,17.5903529 32.5352931,17.5981961 C32.2073354,17.6013333 31.0169122,17.5825098 30.9081185,17.2915294 C30.7764624,16.9464314 30.7780392,16.6201569 30.5052667,15.973098 C30.3302508,15.560549 30.1158169,15.1668235 29.8745788,14.8123137 C29.3771238,14.0821176 28.7629915,13.4742745 28.0361238,13.0083922 L25.0348381,12.1723137 C25.2232561,11.9927059 25.9304148,11.8507451 26.1858434,11.7832941 C27.5236899,11.428 27.4078011,10.9417255 27.0845735,10.8515294 C26.671473,10.7362353 25.6615841,11.1142745 25.2114307,11.2515294 L26.0194995,10.3989804 C25.1783196,10.4774118 24.6288328,10.8946667 23.9989333,11.280549 L24.2606688,10.640549 C23.4675788,10.9056471 22.0367058,12.7856471 21.6401608,13.5385882 L19.9617429,17.202902 C19.8182614,17.1448627 18.824928,16.1323137 18.0657376,15.680549 C17.4035153,15.2868235 16.5189757,14.8664314 15.7582085,14.5158431 C13.9268487,13.6719216 12.6181714,13.1589804 10.7426635,12.4766275 C10.649637,14.1142745 11.7068275,15.015451 13.0249651,15.8962353 L11.4182878,16.1056471 C11.4458804,16.8060392 11.988272,17.5338824 12.4013725,17.8836863 C13.1503143,18.520549 13.5429175,18.522902 14.2303672,18.7817255 L14.372272,18.8538824 C13.2638381,19.0452549 13.5949492,18.922902 12.6323619,19.5432941 C12.6441873,19.9801569 13.5981026,20.9072157 14.3178751,21.0664314 L15.9198222,21.2727059 C15.8086635,21.373098 15.6352243,21.4452549 15.5043566,21.5291765 C15.3403778,21.6327059 15.2733672,21.6946667 15.1559016,21.8358431 C14.9351608,22.1017255 14.8200603,22.4044706 14.9651185,22.7738824 L16.8201291,23.615451 C16.7207958,23.8107451 16.1153354,24.295451 15.9119386,24.4358431 C14.801928,25.1997647 13.5539545,25.7378039 11.9630444,25.8076078 C10.8333249,25.8570196 9.73908148,25.642902 8.87425079,25.2985882 C7.87776402,24.9017255 7.46939365,24.5699608 6.70862646,23.9856471 C6.93173228,24.3683922 7.4370709,24.895451 7.74610794,25.2209412 C10.6551556,28.2899608 15.3608751,29.9840784 20.2802402,29.1103529 C23.283891,28.5762353 25.2201026,27.5448627 26.978145,26.2664314 C27.2682614,26.055451 27.9588646,25.4389804 28.2079862,25.1840784 C28.9719069,24.3989804 29.6530497,23.5581961 30.1505048,22.5872157 C30.2995048,22.295451 30.8150921,21.2860392 30.793018,20.9895686" id="Fill-1"></path>
                    </g>
                </g>
            </g>
        </g>
    </g>
</svg>