<?xml version="1.0" encoding="UTF-8" standalone="no"?>
<svg  viewBox="0 0 5 8" version="1.1" xmlns="http://www.w3.org/2000/svg" xmlns:xlink="http://www.w3.org/1999/xlink">
    <!-- Generator: Sketch 46.2 (44496) - http://www.bohemiancoding.com/sketch -->
    <title>Page 1</title>
    <desc>Created with Sketch.</desc>
    <defs></defs>
    <g id="Mobile" stroke="none" stroke-width="1" fill="none" fill-rule="evenodd">
        <g id="page_menu_catalog_320-copy" transform="translate(-21.000000, -21.000000)" fill="#F9A61A">
            <g id="Group">
                <g id="Page-1" transform="translate(23.500000, 25.000000) scale(-1, 1) rotate(-90.000000) translate(-23.500000, -25.000000) translate(20.000000, 23.000000)">
                    <path d="M5.81800996,0.227410694 C6.00394645,-0.0156178734 6.34024673,-0.045946201 6.57035034,0.161798767 C6.80091544,0.367806904 6.8360719,0.728291438 6.65088001,0.971188713 L4.34080607,3.30654052 L3.91373751,3.73828225 C3.72854562,3.98117953 3.39284839,4.01057379 3.16079409,3.80482824 C2.93097358,3.59868881 2.89478942,3.23673003 3.08263975,2.99584719 L5.81800996,0.227410694 Z" id="Combined-Shape-Copy"></path>
                    <path d="M2.96746442,0.227412337 C3.15340091,-0.0156162308 3.48970119,-0.0459445584 3.71980479,0.16180041 C3.9503699,0.367808547 3.98552636,0.72829308 3.80033447,0.971190355 L1.49026053,3.30654216 C1.34790434,3.45045607 1.06319197,3.7382839 1.06319197,3.7382839 C0.878000074,3.98118117 0.542302845,4.01057544 0.310248544,3.80482989 C0.0804280366,3.59869046 0.0442438757,3.23673168 0.232094212,2.99584883 L2.96746442,0.227412337 Z" id="Combined-Shape-Copy-2" transform="translate(2.015304, 1.982687) scale(-1, 1) translate(-2.015304, -1.982687) "></path>
                </g>
            </g>
        </g>
    </g>
</svg>