<?xml version="1.0" encoding="UTF-8" standalone="no"?>
<svg viewBox="0 0 23 23" version="1.1" xmlns="http://www.w3.org/2000/svg" xmlns:xlink="http://www.w3.org/1999/xlink">
    <!-- Generator: Sketch 46.2 (44496) - http://www.bohemiancoding.com/sketch -->
    <title>Page 1</title>
    <desc>Created with Sketch.</desc>
    <defs></defs>
    <g id="Mobile" stroke="none" stroke-width="1" fill="none" fill-rule="evenodd">
        <g id="page_main_menu_320" transform="translate(-21.000000, -346.000000)" stroke="#F9A61A">
            <g id="Group-2" transform="translate(22.000000, 35.000000)">
                <g id="Group" transform="translate(0.000000, 308.000000)">
                    <path d="M6.13751597,6.47512553 C6.80148462,7.5066622 7.94954818,8.56400685 7.88620135,9.75195546 C7.80799539,11.227702 6.18600367,11.187817 5.91932133,12.5376519 C5.59007422,14.2081313 7.47327386,15.7847636 8.32337269,16.6356445 C8.89818654,17.2096763 9.34708878,17.6241679 10.071276,18.1645711 C10.6281025,18.5798448 11.460214,19.198454 12.365839,19.0389138 C13.6413783,18.8144627 13.9448175,17.193253 15.0967913,17.0720338 C15.8991845,16.9867893 16.4474083,17.4888716 16.9002209,17.782926 C17.4812912,18.1598788 17.9270652,18.4398561 18.4299296,18.7651929 C19.275336,19.3134167 20.913751,19.9680007 20.9966493,21.1700264 C21.0897144,22.5057842 19.2205919,24.0652112 18.3204412,24.5008184 C15.6457972,25.7966912 12.2055168,23.9760564 10.3442148,22.7536971 C7.25507921,20.7211241 4.26135487,17.7414768 2.20532005,14.6140203 C1.07993622,12.9028738 -0.89632852,9.39142596 0.456634675,6.63857599 C0.833587426,5.87293959 2.28274396,4.18369075 3.46130785,4.01554793 C4.82834812,3.82237919 5.49622706,5.47408917 6.13751597,6.47512553 Z" id="Page-1"></path>
                </g>
            </g>
        </g>
    </g>
</svg>