<?xml version="1.0" encoding="UTF-8" standalone="no"?>
<svg viewBox="0 0 25 23" version="1.1" xmlns="http://www.w3.org/2000/svg" xmlns:xlink="http://www.w3.org/1999/xlink">
    <!-- Generator: Sketch 47 (45396) - http://www.bohemiancoding.com/sketch -->
    <title>Page 1</title>
    <desc>Created with Sketch.</desc>
    <defs></defs>
    <g id="Mobile" stroke="none" stroke-width="1" fill="none" fill-rule="evenodd" stroke-linecap="round" stroke-linejoin="round">
        <g id="page_product_320" transform="translate(-28.000000, -3654.000000)" stroke-width="2" stroke="#F9A61A">
            <g id="Group-18" transform="translate(0.000000, 2834.000000)">
                <g id="Group-8">
                    <g id="Group-34" transform="translate(29.000000, 821.000000)">
                        <g id="Page-1">
                            <path d="M19.0126474,1.04345294 C18.6579632,0.282511765 17.2162263,-0.516723529 16.4184895,0.431982353 C16.7901211,4.00198235 14.1947526,4.76662941 12.5302789,6.63933529 C11.3754368,7.93886471 11.1514895,10.0858059 8.74012105,9.79551176 C8.35517368,13.3161 9.11538421,16.5278647 9.93733158,19.1565706 C13.7214368,17.9286882 17.8759632,20.8291588 21.1056474,18.9527471 C21.4300684,18.1547471 21.0281737,17.3826882 20.7073842,16.9182176 C22.5812789,17.0627471 22.9141737,14.9083941 21.7060684,14.0683941 C23.7082789,13.2469235 23.1114895,11.3618647 21.7060684,10.5070412 C22.2762263,10.2043941 22.7144368,9.99315882 22.8028053,9.38786471 C23.2446474,6.31198235 18.1737526,8.52192353 17.0189105,7.45339412 C17.9485947,6.22057059 19.9907526,3.13727647 19.0126474,1.04345294 L19.0126474,1.04345294 Z" id="Stroke-1"></path>
                            <path d="M5.27595789,9.5928 C3.71316842,9.89050588 1.84411579,10.0943294 0.0900631579,9.89791765 C-0.332410526,14.1485647 0.820010526,17.6197412 1.78601053,20.7870353 C3.11758947,20.2929176 5.53016842,20.0718 6.70922105,20.2188 C5.06290526,15.6370941 5.0968,11.7693882 5.27595789,9.5928 L5.27595789,9.5928 Z" id="Stroke-3"></path>
                        </g>
                    </g>
                </g>
            </g>
        </g>
    </g>
</svg>