<?xml version="1.0" encoding="UTF-8" standalone="no"?>
<svg  viewBox="0 0 32 32" version="1.1" xmlns="http://www.w3.org/2000/svg" xmlns:xlink="http://www.w3.org/1999/xlink">
    <!-- Generator: Sketch 46.2 (44496) - http://www.bohemiancoding.com/sketch -->
    <title>Page 1</title>
    <desc>Created with Sketch.</desc>
    <defs></defs>
    <g id="Mobile" stroke="none" stroke-width="1" fill="none" fill-rule="evenodd">
        <g id="page_main_320-copy" transform="translate(-220.000000, -27.000000)" fill="#F9A61A">
            <g id="Group-20" transform="translate(220.000000, 19.000000)">
                <g id="Page-1" transform="translate(0.000000, 8.000000)">
                    <g id="Group-3" transform="translate(0.000000, 0.018948)">
                        <path d="M9.93449458,15.155483 L20.6537064,15.155483 C21.8582778,15.155483 23.3198739,15.3849867 24.2005044,15.076859 C24.806534,14.8648098 25.5306325,13.7250752 25.9344946,13.1898811 C27.2063764,11.5044167 27.8697064,10.658343 29.0872039,9.02280491 C29.5750069,8.36747322 30.3842286,7.45889337 30.26947,6.5068344 C30.0215882,4.45112924 26.1581793,5.09160098 23.8064158,5.09160098 L5.59951921,5.09160098 C6.87699704,8.29891302 8.3527803,11.9896059 9.93449458,15.155483 M0.0822778325,0.0596599509 L3.39262266,0.0596599509 C3.8510266,1.2010457 4.3790266,2.27308501 4.81134187,3.44049533 L23.2546916,3.44049533 C25.4653714,3.44049533 28.5841892,3.02858378 30.0330167,3.67636757 C31.3435192,4.2622742 32.4073222,6.07927666 31.8458246,7.84344373 C31.5981005,8.62166486 30.8265537,9.463886 30.26947,10.2021661 C29.1875389,11.6357975 28.0851941,13.0084953 26.8803074,14.6051145 C26.236603,15.4581071 25.7636177,16.2985199 24.7522286,16.6493405 C23.0781399,17.230058 19.5523862,16.8065887 17.4221793,16.8065887 L10.0133123,16.8065887 C9.63845517,17.2899695 9.36661281,17.8641612 9.06749951,18.4576943 C8.53729261,19.5096059 7.97082956,21.2346182 9.46158818,21.7599057 C10.5045044,22.1273946 12.6232828,21.8385297 14.1906522,21.8385297 L28.6142975,21.8385297 L28.6142975,23.5682595 L13.5601103,23.5682595 C11.8245438,23.5682595 9.99644532,23.776456 8.83104631,23.3323872 C7.43983448,22.8023037 6.55951921,21.3234634 6.78178522,19.6370555 C6.94848473,18.3727803 7.98738128,17.2865887 8.3581399,16.1775961 C6.42907586,11.2615469 4.27096749,6.57421523 2.28917438,1.7107656 L0.00346009852,1.7107656 L0.00346009852,0.295532187 C-0.0033182266,0.183964619 -0.00954482759,0.0728687961 0.0822778325,0.0596599509" id="Fill-1"></path>
                    </g>
                    <path d="M10.407401,30.2702545 C12.6122483,29.9789523 11.8935882,26.7397189 9.93449458,26.9680432 C7.62710542,27.2370162 8.34308571,30.5430015 10.407401,30.2702545 M9.61922365,25.3169376 C13.8012138,24.7289081 14.7709872,30.5659597 11.2743961,31.764112 C9.00318424,32.5423332 5.93882956,30.6738319 6.93942069,27.5184118 C7.27069163,26.4738123 8.12192315,25.5274929 9.61922365,25.3169376" id="Fill-4"></path>
                    <path d="M25.5404059,30.2702545 C27.7313025,29.9807607 27.0351842,26.7386968 25.0674995,26.9680432 C22.7603468,27.2370162 23.4752236,30.5431587 25.5404059,30.2702545 M24.7522286,25.3169376 C26.7526227,25.0356206 28.4113419,26.3138123 28.6142975,28.1474044 C28.7912433,29.7461464 27.9361498,31.2403184 26.407401,31.764112 C24.136268,32.5423332 21.0718345,30.6738319 22.0724256,27.5184118 C22.4036177,26.4738123 23.2549281,25.5274929 24.7522286,25.3169376" id="Fill-6"></path>
                </g>
            </g>
        </g>
    </g>
</svg>