<?xml version="1.0" encoding="UTF-8" standalone="no"?>
<svg viewBox="0 0 79 34" version="1.1" xmlns="http://www.w3.org/2000/svg" xmlns:xlink="http://www.w3.org/1999/xlink">
    <!-- Generator: Sketch 46.2 (44496) - http://www.bohemiancoding.com/sketch -->
    <title>Page 1</title>
    <desc>Created with Sketch.</desc>
    <defs>
        <polygon id="path-1" points="14.3247481 14.3349823 14.3247481 0.544436837 0.31916 0.544436837 0.31916 14.3349823"></polygon>
    </defs>
    <g id="Mobile" stroke="none" stroke-width="1" fill="none" fill-rule="evenodd">
        <g id="page_main_320-copy" transform="translate(-23.000000, -21.000000)">
            <g id="Page-1" transform="translate(23.000000, 21.000000)">
                <path d="M39.9845919,10.2645194 C39.1050585,11.2008158 40.082903,13.2515535 42.1281252,14.6518553 C44.3951326,16.199526 46.5216956,16.5771222 46.5661696,16.5984285 C46.6293696,16.6250615 45.9166141,14.2351974 44.4238067,12.2116845 C43.3482363,10.753974 41.9525696,9.8904743 40.9325919,9.8904743 C40.5522215,9.8904743 40.2239326,10.0100267 39.9845919,10.2645194" id="Fill-1" fill="#F9A61A"></path>
                <path d="M44.9095104,2.69596552 C43.6987622,3.20850199 44.0504585,6.20145458 45.7164807,9.12871253 C47.5609844,12.3690557 49.638977,14.1706273 49.6793548,14.2233014 C49.733777,14.2943226 49.7671326,11.0823879 48.8747252,7.79173806 C48.0718511,4.83666346 46.4579104,2.62553614 45.2600363,2.62553614 C45.1383178,2.62553614 45.0206956,2.64861804 44.9095104,2.69596552" id="Fill-3" fill="#F9A61A"></path>
                <path d="M63.4051659,12.2116845 C61.9129437,14.2351974 61.2001881,16.6250615 61.262803,16.5984285 C61.3078622,16.5771222 63.4344252,16.199526 65.7014326,14.6518553 C67.7466548,13.2515535 68.7250844,11.2008158 67.8449659,10.2645194 C67.60504,10.0100267 67.2767511,9.8904743 66.8969659,9.8904743 C65.8769881,9.8904743 64.4813215,10.753974 63.4051659,12.2116845" id="Fill-5" fill="#F9A61A"></path>
                <path d="M58.9551252,7.7919748 C58.0621326,11.0826247 58.094903,14.2939675 58.1504956,14.2229463 C58.1902881,14.1702722 60.2682807,12.3687006 62.1133696,9.12894927 C63.7793919,6.20109947 64.130503,3.20814688 62.9191696,2.69620225 C62.8073993,2.64885477 62.6903622,2.62577288 62.5692289,2.62577288 C61.3713548,2.62577288 59.7574141,4.8369002 58.9551252,7.7919748" id="Fill-7" fill="#F9A61A"></path>
                <path d="M53.5861681,0 C52.2765237,0.0124287135 51.4871089,3.11546419 51.942383,6.69079078 C52.4462274,10.6490401 53.7032052,13.2786008 53.7213459,13.3472546 C53.7447533,13.4401741 54.9695459,10.274995 55.3663015,6.65587202 C55.7577904,3.08232095 54.9045904,0 53.5943607,0 L53.5861681,0" id="Fill-9" fill="#F9A61A"></path>
                <path d="M16.4803363,32.4893082 C15.9027585,32.4893082 15.3245956,32.4502465 14.7868104,32.005772 C14.1495437,31.4630516 14.1495437,30.8984329 14.1495437,30.2337926 L14.1495437,20.5630698 C14.1495437,20.0197575 14.2285437,19.4344242 14.747603,18.9508881 C15.2654919,18.4679438 15.9425511,18.3862694 16.4405437,18.3862694 L26.4600844,18.3862694 L26.4600844,21.8118596 L19.5677733,21.8118596 C19.3091215,21.8118596 19.029403,21.8728195 18.871403,22.0136782 C18.6507881,22.1941905 18.6507881,22.5167452 18.6507881,22.6984411 L18.6507881,23.7661268 L26.2611215,23.7661268 L26.2611215,26.8283251 L18.6507881,26.8283251 L18.6507881,28.3588324 C18.6507881,28.6423254 18.75144,28.802715 18.8509215,28.8832057 C19.0709511,29.0850244 19.4290844,29.0654935 19.7070474,29.0654935 L26.5191881,29.0654935 L26.5191881,32.4893082 L16.4803363,32.4893082 Z" id="Fill-11" fill="#009E4D"></path>
                <path d="M38.8613874,32.4893082 L34.6381059,27.0295519 C34.2998689,26.5856693 33.8217726,25.8819673 33.8217726,25.2771033 C33.8217726,24.7533218 34.16118,24.128335 34.4602096,23.7057588 L38.2048096,18.3862694 L43.5428689,18.3862694 L38.7016319,24.2088258 C38.1843281,24.8332207 38.1252244,25.1356527 38.1252244,25.2569806 C38.1252244,25.7198022 38.5635281,26.2033384 38.8613874,26.5264849 L44.2807874,32.4893082 L38.8613874,32.4893082 Z M28.8816393,32.4893082 L33.3840541,32.4893082 L33.3840541,18.3862694 L28.8816393,18.3862694 L28.8816393,32.4893082 Z" id="Fill-13" fill="#009E4D"></path>
                <path d="M2.08442963,32.2586668 C1.55893333,32.2586668 0.974333333,32.1408899 0.604496296,31.8260292 C0.292007407,31.5685773 0,31.0578163 0,30.4855036 L0,18.4687132 L4.40293333,18.4687132 L4.40293333,27.9837812 C4.40293333,28.1412115 4.42224444,28.476195 4.61594074,28.653748 C4.79266667,28.8117702 5.0835037,28.8307092 5.31699259,28.8307092 L12.3889556,28.8307092 L12.3889556,32.2586668 L2.08442963,32.2586668 Z" id="Fill-15" fill="#009E4D"></path>
                <g id="Group-19" transform="translate(64.370370, 17.923803)">
                    <mask id="mask-2" fill="white">
                        <use xlink:href="#path-1"></use>
                    </mask>
                    <g id="Clip-18"></g>
                    <path d="M0.31916,3.1846507 C0.31916,2.55492921 0.358367407,1.76659367 0.845241481,1.21499552 C1.35201185,0.643274702 2.15078963,0.544436837 2.67628593,0.544436837 L10.0976044,0.544436837 C10.9549007,0.544436837 12.4541452,0.544436837 13.3518193,1.88437052 C13.9352489,2.77095209 14.0522859,3.99192523 14.0522859,5.03712086 C14.0522859,5.6662505 14.0136637,7.30210594 13.5461007,8.42483306 C13.0399156,9.64698989 12.0655822,10.1388118 11.0134193,10.1388118 L10.4288193,10.1388118 L10.4288193,10.217527 L14.3249822,14.3349823 L9.02613037,14.3349823 L6.39689333,10.7490025 C5.94864148,10.1388118 5.46176741,9.54815202 5.46176741,8.87818518 L5.46176741,8.58285527 C5.46176741,7.65721204 6.29916741,7.02571502 7.42857481,7.02571502 L8.13021185,7.02571502 C8.51936,7.02571502 9.04602667,6.98783704 9.35734519,6.61201641 C9.57152296,6.33740103 9.64993778,5.82486456 9.64993778,5.46975845 C9.64993778,4.72107643 9.4158637,4.40621568 9.31872296,4.30678597 C8.98750815,3.95286356 8.50063407,3.97298624 8.09100444,3.97298624 L5.65721926,3.97298624 C5.40383407,3.97298624 5.16917481,3.99192523 4.97489333,4.18900912 C4.70219704,4.44646104 4.72092296,4.72107643 4.72092296,5.05605985 L4.72092296,14.3349823 L0.31916,14.3349823 L0.31916,3.1846507 Z" id="Fill-17" fill="#009E4D" mask="url(#mask-2)"></path>
                </g>
                <g id="Group-22" transform="translate(43.888889, 14.372742)" fill="#F9A61A">
                    <path d="M7.55023481,0.799935676 C2.51120519,2.05405206 -0.568039259,7.2001313 0.671382963,12.2959038 C1.90963481,17.3916764 6.99957556,20.5071406 12.03802,19.253616 C17.0758793,17.9994997 20.1557089,12.8534204 18.9168719,7.75646419 C17.8623681,3.42357792 14.0241385,0.522952918 9.80144222,0.522361074 C9.05825704,0.522361074 8.30395333,0.612321286 7.55023481,0.799935676 M6.22244963,15.207182 C4.37619037,14.4496223 2.86407185,12.5527639 2.67213111,10.3031668 C2.47902,8.15004012 3.34567926,5.91642275 5.0269163,4.43267109 C6.69820519,2.94004178 9.02139037,2.36181068 11.0783163,2.85777553 C13.0146941,3.27324967 14.7854644,4.50191678 15.7703311,6.0981187 C16.2730052,6.88408687 16.5989533,7.71681068 16.8020126,8.52053415 C17.0009756,9.30472679 17.1221089,10.1439609 17.0799756,10.9636641 C17.0144348,12.605438 16.3648793,14.0524954 15.5555681,15.0781601 C13.8942274,17.1442858 11.8601237,17.8698859 10.4586052,17.9669483 C9.74643481,18.0113365 9.17119778,17.8669267 8.83179037,17.6662918 C8.48594593,17.4632895 8.38997556,17.249634 8.4473237,17.1555308 C8.57489407,16.9590388 9.18114593,17.1075915 10.2028793,16.678505 C11.1959385,16.2754595 12.6682644,15.3367958 13.6197756,13.7127772 C14.0867533,12.9084619 14.3688126,11.9567775 14.31322,10.9435414 C14.2582126,9.96936704 13.8632126,8.71110776 13.2277015,7.84524072 C12.5904348,6.95274072 11.6038126,6.32775398 10.4047681,6.09338395 C9.33914593,5.85783024 8.10030889,6.18393601 7.22604222,6.97049602 C6.33480519,7.74285179 5.86724222,8.95257991 5.92868667,10.0279595 C5.98018296,11.0346853 6.6227163,11.9467162 7.47357556,12.3675169 C7.88027926,12.5793969 8.39582741,12.6823777 8.79609407,12.6687653 C9.19753111,12.6510099 9.58199778,12.5178452 9.90619037,12.2893936 C10.5651089,11.8532049 10.8881311,10.9725418 10.830783,10.33631 C10.7763607,9.68764954 10.3134793,9.12539821 9.77510889,8.89635477 C9.20455333,8.64541313 8.71416815,8.68802586 8.29985704,8.89931399 C7.46713852,9.34082924 7.3255237,10.1238382 7.07974593,10.0989808 C6.97382741,10.0989808 6.83982,9.91787666 6.81465704,9.51956598 C6.79710148,9.13250033 6.91296815,8.48916645 7.47357556,7.88489423 C7.74978296,7.58719695 8.14185704,7.31672447 8.63399778,7.15337566 C9.13842741,6.9864758 9.69610889,6.96812865 10.2736867,7.07761969 C11.4300126,7.28476492 12.7185904,8.2476943 13.1364126,9.83205935 C13.3359607,10.6298644 13.3096274,11.4395063 13.0691163,12.2491482 C12.8291904,13.059382 12.3516793,13.838248 11.6646719,14.450806 C10.9764941,15.059813 10.0758941,15.4942261 9.08868667,15.6214725 C8.86514593,15.6475136 8.64394593,15.6605342 8.42508667,15.6605342 C7.67487926,15.6605342 6.9463237,15.5096141 6.22244963,15.207182" id="Fill-20"></path>
                </g>
            </g>
        </g>
    </g>
</svg>