<svg viewBox="0 0 18 21" xmlns="http://www.w3.org/2000/svg"><title>Fill 5</title><path d="M6.267 15.9h2.845c.962 0 1.639-.182 2.03-.553.396-.371.593-.87.593-1.496 0-.581-.194-1.048-.585-1.4-.39-.354-1.07-.532-2.05-.532H6.267V15.9zm0-7.72h2.425c.87 0 1.475-.164 1.82-.49.34-.328.508-.8.508-1.413 0-.572-.168-1.02-.508-1.34-.345-.326-.938-.486-1.783-.486H6.267v3.73zM.64.47h10.443c1.74 0 3.077.472 4.005 1.41.933.937 1.4 2.1 1.4 3.482 0 1.162-.332 2.16-.997 2.992-.444.554-1.092.993-1.946 1.314 1.295.338 2.25.923 2.862 1.748.61.829.916 1.867.916 3.116 0 1.02-.218 1.936-.65 2.75a5.059 5.059 0 0 1-1.786 1.932c-.467.293-1.173.508-2.119.64-1.257.179-2.088.27-2.5.27H.64V.47z" fill="#B7B7B7" fill-rule="evenodd"/></svg>