<svg viewBox="0 0 25 23" xmlns="http://www.w3.org/2000/svg"><title>Page 1</title><path d="M20.013 2.043c-.355-.76-1.797-1.56-2.595-.611.372 3.57-2.223 4.335-3.888 6.207-1.155 1.3-1.379 3.447-3.79 3.157-.385 3.52.375 6.732 1.197 9.36 3.784-1.227 7.939 1.673 11.169-.203.324-.798-.078-1.57-.399-2.035 1.874.145 2.207-2.01 1-2.85 2.001-.821 1.404-2.706 0-3.561.57-.303 1.007-.514 1.096-1.12.442-3.075-4.63-.865-5.784-1.934.93-1.232 2.972-4.316 1.994-6.41zm-13.737 8.55c-1.563.298-3.432.501-5.186.305-.422 4.25.73 7.722 1.696 10.889 1.332-.494 3.744-.715 4.923-.568-1.646-4.582-1.612-8.45-1.433-10.626z" stroke-width="2" stroke="#F9A61A" fill="none" stroke-linecap="round" stroke-linejoin="round"/></svg>