<svg viewBox="0 0 23 23" xmlns="http://www.w3.org/2000/svg"><title>Page 1</title><path d="M7.138 3.475C7.8 4.507 8.95 5.564 8.886 6.752c-.078 1.476-1.7 1.436-1.967 2.786-.329 1.67 1.554 3.247 2.404 4.098.575.574 1.024.988 1.748 1.529.557.415 1.39 1.033 2.295.874 1.275-.225 1.579-1.846 2.73-1.967.803-.085 1.351.417 1.804.71.581.378 1.027.658 1.53.983.845.548 2.484 1.203 2.567 2.405.093 1.336-1.776 2.895-2.677 3.33-2.674 1.297-6.114-.524-7.976-1.746-3.089-2.033-6.083-5.013-8.139-8.14C2.08 9.903.104 6.391 1.457 3.639c.377-.766 1.826-2.455 3.004-2.623 1.367-.194 2.035 1.458 2.677 2.46z" stroke="#F9A61A" fill="none"/></svg>