<svg viewBox="0 0 32 32" xmlns="http://www.w3.org/2000/svg"><title>Page 1</title><path d="M9.934 15.174h10.72c1.204 0 2.666.23 3.547-.078.606-.212 1.33-1.352 1.733-1.887 1.272-1.686 1.936-2.532 3.153-4.167.488-.656 1.297-1.564 1.182-2.516-.247-2.056-4.11-1.415-6.463-1.415H5.6c1.277 3.207 2.753 6.898 4.334 10.063M.082.08h3.31c.459 1.141.987 2.213 1.42 3.38h18.443c2.21 0 5.33-.411 6.778.236 1.31.586 2.374 2.403 1.813 4.167-.248.779-1.02 1.62-1.577 2.36-1.081 1.433-2.184 2.805-3.389 4.402-.643.853-1.116 1.693-2.128 2.044-1.674.581-5.2.158-7.33.158h-7.409c-.375.483-.646 1.057-.946 1.65-.53 1.053-1.096 2.778.395 3.303 1.043.367 3.161.078 4.729.078h14.423v1.73H13.56c-1.735 0-3.564.208-4.729-.236-1.391-.53-2.271-2.009-2.05-3.695.167-1.264 1.206-2.35 1.577-3.46C6.43 11.28 4.271 6.594 2.29 1.73H.003V.314C-.003.203-.01.092.083.08m10.324 30.19c2.205-.291 1.487-3.53-.473-3.302-2.307.269-1.59 3.575.473 3.302m-.788-4.953c4.182-.588 5.152 5.249 1.655 6.447-2.27.778-5.335-1.09-4.335-4.246.332-1.044 1.183-1.99 2.68-2.201M25.54 30.27c2.191-.29 1.495-3.531-.473-3.302-2.307.269-1.592 3.575.473 3.302m-.788-4.953c2-.281 3.66.997 3.862 2.83.177 1.6-.678 3.093-2.207 3.617-2.27.778-5.335-1.09-4.335-4.246.332-1.044 1.183-1.99 2.68-2.201" fill="#F9A61A" fill-rule="evenodd"/></svg>