<svg viewBox="0 0 11 21" xmlns="http://www.w3.org/2000/svg"><title>Fill 9</title><path d="M2.882 10.309c.053.067.023.526.023.611l.002 9.682h4.22c.025-2.548.001-5.164.001-7.724 0-.036-.009-2.48.003-2.531.008-.033.009-.03.018-.043.006 0 2.684.022 2.778-.001l.046-.014.37-3.534H7.142c-.012-.522.003-1.059.003-1.582 0-.477-.01-1.068.276-1.33l2.907-.29-.004-3.546C9.773-.026 9.12.004 8.557.004c-.583 0-1.175-.012-1.75.027-1.095.071-1.979.396-2.62.938-.926 1.479-1.284.208-1.29 5.788H.774l.004 3.55 2.103.002z" fill="#B7B7B7" fill-rule="evenodd"/></svg>