<svg viewBox="0 0 111 32" xmlns="http://www.w3.org/2000/svg" xmlns:xlink="http://www.w3.org/1999/xlink"><title>Page 1</title><defs><path id="a" d="M7.592 9V.385H.797V9h6.795z"/><path id="c" d="M30.145.678H.994v19.814h29.151V.678z"/></defs><g fill="none" fill-rule="evenodd"><path d="M49.712 11.277l-.005.026c-.192.994-1.066 1.391-1.797 1.34-.724-.052-1.505-.575-1.505-1.604V6.95c0-.796-.168-1.293-1.005-1.309-.334-.007-.58.06-.752.203-.314.262-.35.756-.35 1.106v4.034c0 1.014-.933 1.641-1.797 1.641-.71 0-1.542-.442-1.542-1.689V6.95c0-.966-.278-1.309-1.06-1.309-.854 0-1.034.712-1.034 1.31v4.04c0 .328.095 3.21 3.333 3.21 2.088 0 2.88-1.15 2.912-1.199l.327-.49.333.488c.034.05.838 1.201 2.99 1.201 1.795 0 3.045-1.434 3.045-2.72V6.61c0-.206-.103-.979-1.009-.979-.905 0-1.084.747-1.084.98v4.665zm15.85-.341c0 1.204-.704 1.814-1.59 1.814-.925 0-1.589-.61-1.589-1.814V8.898c0-1.061.496-1.902 1.589-1.977 1.094.075 1.59.916 1.59 1.977v2.038zm1.952-2.677c-.121-1.313-.906-2.626-3.259-2.626-.615 0-1.35.276-1.828.637V3.29c0-.206-.098-.978-.965-.978-.865 0-1.036.746-1.036.978v5.285a3.056 3.056 0 0 0-.015.268v1.647s.052 1.16.253 1.734c.543 1.546 2.022 1.983 3.38 1.983.942 0 2.068-.338 2.776-1.108.425-.461.671-1.09.712-1.852V9.344l-.018-1.085zm-12.856.639c0-1.1.53-1.965 1.706-1.983.567.042 1.174.355 1.193 1.403-.132.513-2.22.984-2.899 1.206v-.626zm4.78-.234l.02-.018c.164-1.327-.704-3.04-3.2-3.014-2.496.028-3.24 1.69-3.24 1.69a.1.1 0 0 0 .01.014 3.851 3.851 0 0 0-.343 1.506v2.149c0 .328.095 3.21 3.332 3.21 2.09 0 3.033-1.152 3.064-1.2l.101-.151c.848-1.527-1.144-1.681-1.536-1.012-.247.423-.668.787-1.325.787-.689 0-1.595-.42-1.652-1.58.26-.095 1.9-.695 3.34-1.145 1.172-.364 1.401-.803 1.43-1.236zM5.119 18.532c.2.214.525.542.932.888.368.313.85.486 1.356.483h.05l.095-.006c.509-.042 1.237-.439 1.522-.695l.018-.016.018-.02c.007-.007.717-.733 1.799-1.707l1.789-1.623 3.42 3.203c.276.257.919.86 1.98.86.953 0 1.49-.504 1.813-.804l.096-.089c-.01.007 1.05-.957 2.565-2.429l2.988-2.69.556-.5-1.476-1.363a2.05 2.05 0 0 0-1.358-.485l-.043.001-.092.005c-.477.04-.905.221-1.23.513l-2.131 1.921s-1.214 1.102-1.795 1.627l-3.865-3.623a2.084 2.084 0 0 0-2.784-.024l-3.21 2.891-3.486 3.178.473.504z" fill="#F26F27"/><path d="M27.486 21.372c-.9-.124-1.562.803-1.834 1.211-2.19 3.286-5.859 5.204-10.08 5.204-6.138 0-11.245-4.424-12.22-10.206l.504-.462.006.006 2.734-2.515-2.76-2.556a2.766 2.766 0 0 0-.392-.314 1.232 1.232 0 0 0-.195-.114.456.456 0 0 0-.058-.03c-.009-.003-.018-.008-.027-.01a1.321 1.321 0 0 0-.394-.113 2.433 2.433 0 0 0-1.035.035c-.69.181-1.208.667-1.456 1.368l-.019.052-.01.054A15.69 15.69 0 0 0 0 15.747c0 8.508 6.982 15.493 15.566 15.574 5.393.05 10.104-2.402 12.983-6.658.411-.607 1.33-2.96-1.063-3.29" fill="#F26F27"/><path d="M94.397 16.724c-.867 0-1.037.746-1.037.979v6.603c0 .232.17.979 1.037.979.866 0 .966-.773.966-.98v-6.602c0-.207-.1-.98-.966-.98m-44.685 2.922l-.005-.024c-.19-.993-1.066-1.39-1.797-1.34-.724.052-1.505.576-1.505 1.604v4.09c0 .796-.168 1.292-1.005 1.308-.335.008-.58-.06-.752-.202-.315-.262-.352-.756-.352-1.107V19.94c0-1.012-.93-1.64-1.795-1.64-.71 0-1.543.444-1.543 1.689v3.986c0 .968-.277 1.31-1.06 1.31-.853 0-1.033-.711-1.033-1.31v-4.04c0-.33.103-3.184 3.754-3.21 2.09-.015 2.818 1.363 2.818 1.363s.592-1.491 3.096-1.337c1.79.11 3.272 1.416 3.272 3.038v4.524c0 .206-.103.98-1.009.98a1.014 1.014 0 0 1-1.084-.98v-4.667zm38.532-2.921c-3.652.026-3.753 2.88-3.753 3.21v4.04c0 .599.178 1.31 1.03 1.31.785 0 1.062-.342 1.062-1.31v-3.986c0-1.245.835-1.637 1.543-1.69 1.128-.081 1.796.629 1.796 1.642v4.035c0 .35.036.844.35 1.106.17.143.418.209.753.203.837-.016 1.005-.512 1.005-1.31v-4.09c0-1.974-1.698-3.174-3.786-3.16m-16.431 0c-.711.005-1.285.119-1.751.299V14.38c0-.206-.101-.978-.966-.978-.866 0-1.037.747-1.037.978v9.594c0 .598.179 1.309 1.032 1.309.783 0 1.061-.342 1.061-1.31v-3.986c0-1.245.833-1.637 1.542-1.69 1.129-.081 1.796.629 1.796 1.642v4.035c0 .35.037.844.351 1.106.171.143.418.209.752.203.838-.016 1.007-.512 1.007-1.31v-4.09c0-1.974-1.699-3.174-3.787-3.16m-6.351 6.206c-.248.423-.667.787-1.325.787-.712 0-1.664-.442-1.664-1.69v-2.038c0-1.098.514-1.83 1.692-1.848.444.034.85.24 1.055.824.069.195.56.887 1.267.746.906-.18.78-.895.587-1.343-.391-.901-1.332-1.661-3.001-1.643-2.497.026-3.24 1.689-3.24 1.689l.009.015a3.828 3.828 0 0 0-.34 1.506v2.146c.012.462.325 3.21 3.564 3.21 2.089 0 2.798-1.15 2.83-1.198L67 23.94c.846-1.527-1.146-1.682-1.537-1.012m-10.685-2.941c0-1.098.53-1.963 1.706-1.982.567.044 1.174.355 1.193 1.403-.132.514-2.22.983-2.899 1.206v-.627zm4.78-.233l.02-.018c.165-1.325-.704-3.038-3.199-3.013-2.497.027-3.24 1.69-3.24 1.69a.1.1 0 0 0 .008.014 3.862 3.862 0 0 0-.34 1.506v2.148c0 .328.093 3.21 3.331 3.21 2.09 0 3.031-1.15 3.063-1.2l.101-.15c.85-1.527-1.142-1.683-1.536-1.013-.248.423-.667.788-1.324.788-.69 0-1.596-.422-1.653-1.58.26-.096 1.9-.696 3.341-1.145 1.173-.366 1.4-.804 1.428-1.237zm21.769 3.175c0 1.098-.514 1.1-1.457 1.056-.584-.045-1.415-.158-1.443-1.46.034-.864.238-1.392 1.02-1.604.664-.18 1.81.179 1.871.566l.01-.021v1.463zm-1.518-6.205c-1.892-.07-2.422.068-2.618.624-.203.58.42.883 1.3.883.496 0 .732-.034 1.077-.034.712 0 1.868.43 1.87 1.92-.01-.013-.016-.033-.029-.045-.362-.362-2.022-.96-3.56-.13-1.412.762-1.367 2.13-1.337 2.697.001.014.007.027.01.04-.073 1.43.95 2.644 3.317 2.644 1.812 0 3.461-.13 3.461-2.548v-2.841c0-.33-.255-3.09-3.49-3.21zm21.636 6.205c-.248.423-.667.787-1.325.787-.712 0-1.663-.442-1.663-1.69v-2.038c0-1.098.514-1.83 1.69-1.848.446.034.85.24 1.057.824.069.195.56.887 1.266.746.906-.18.782-.895.588-1.343-.391-.901-1.334-1.661-3.001-1.643-2.496.026-3.24 1.689-3.24 1.689l.009.015a3.836 3.836 0 0 0-.341 1.506v2.146c.01.462.326 3.21 3.565 3.21 2.087 0 2.797-1.15 2.83-1.198l.102-.151c.846-1.527-1.145-1.682-1.537-1.012" fill="#FEFEFE"/><g transform="translate(103 16.322)"><mask id="b" fill="#fff"><use xlink:href="#a"/></mask><path d="M5.62 6.606c0 1.098-.513 1.101-1.456 1.056-.585-.045-1.416-.158-1.443-1.459.034-.865.237-1.393 1.02-1.605.664-.18 1.81.18 1.87.566l.01-.023v1.465zM4.104.401C2.21.331 1.68.47 1.486 1.025c-.205.58.419.883 1.298.883.497 0 .733-.034 1.078-.034.71 0 1.869.431 1.87 1.923-.011-.015-.016-.036-.03-.048-.362-.362-2.022-.96-3.56-.129C.73 4.381.776 5.75.807 6.316c0 .012.006.023.008.036C.738 7.784 1.763 9 4.133 9c1.81 0 3.46-.13 3.46-2.548v-2.84c0-.33-.255-3.09-3.49-3.21z" fill="#FEFEFE" mask="url(#b)"/></g><g transform="translate(1 -.678)"><mask id="d" fill="#fff"><use xlink:href="#c"/></mask><path d="M14.631.678c-5.048 0-9.767 2.334-12.677 6.116-.563.732-1.52 2.178-.535 3.135 1.484 1.443 3.062-.427 3.617-1.122a12.138 12.138 0 0 1 9.536-4.596c5.773 0 10.772 4.234 12.063 9.727l-3.516 3.109 1.831 1.677.494.42c.296.257.577.498.854.697l-.004.017.4.262c.592.41 1.366.487 2.07.2.603-.245 1.031-.796 1.201-1.554l.006-.025.004-.025c.113-.763.17-1.533.17-2.291 0-8.683-6.96-15.747-15.514-15.747" fill="#FEFEFE" mask="url(#d)"/></g></g></svg>