<svg viewBox="0 0 29 20" xmlns="http://www.w3.org/2000/svg"><title>Fill 1</title><path d="M24.793 11.202c.081-.072.017.026.08-.118l.145-.508c.785-.024 1.327-.084 1.96-.335l1.307-.89c-.432-.005-.887.11-1.59.002l-1.426-.297c.118-.074.299-.077.465-.101a5.71 5.71 0 0 0 .488-.088c.328-.076.569-.15.845-.276l1.095-1.066c-.5.196-.953.278-1.627.286-.328.003-1.518-.016-1.627-.307-.132-.345-.13-.671-.403-1.318a6.788 6.788 0 0 0-.63-1.161 6.395 6.395 0 0 0-1.839-1.804l-3.001-.836c.188-.18.895-.322 1.15-.39 1.339-.355 1.223-.84.9-.931-.414-.115-1.423.263-1.874.4l.808-.853c-.84.079-1.39.496-2.02.882l.262-.64c-.793.265-2.224 2.145-2.62 2.898l-1.68 3.664c-.143-.058-1.136-1.07-1.895-1.522-.662-.394-1.547-.814-2.308-1.165-1.831-.844-3.14-1.357-5.015-2.039-.093 1.638.964 2.539 2.282 3.42l-1.607.21c.028.7.57 1.427.983 1.777.75.637 1.142.64 1.83.898l.141.072c-1.108.192-.777.07-1.74.69.012.437.966 1.364 1.686 1.523l1.602.206c-.111.1-.285.173-.416.257a1.228 1.228 0 0 0-.348.306c-.22.266-.336.569-.19.938l1.854.842c-.1.195-.705.68-.908.82-1.11.764-2.358 1.302-3.949 1.372a7.634 7.634 0 0 1-3.089-.509c-.996-.397-1.405-.729-2.165-1.313.223.383.728.91 1.037 1.235 2.91 3.07 7.615 4.764 12.534 3.89 3.004-.534 4.94-1.566 6.698-2.844.29-.211.98-.828 1.23-1.082.764-.786 1.445-1.626 1.943-2.597.149-.292.664-1.301.642-1.598" fill="#B7B7B7" fill-rule="evenodd"/></svg>