<svg viewBox="0 0 79 34" xmlns="http://www.w3.org/2000/svg" xmlns:xlink="http://www.w3.org/1999/xlink"><title>Page 1</title><defs><path id="a" d="M14.325 14.335V.545H.319v13.79z"/></defs><g fill="none" fill-rule="evenodd"><path d="M39.985 10.265c-.88.936.098 2.987 2.143 4.387 2.267 1.548 4.394 1.925 4.438 1.946.063.027-.65-2.363-2.142-4.386-1.076-1.458-2.471-2.322-3.491-2.322-.38 0-.71.12-.948.375m4.925-7.569c-1.211.513-.86 3.505.806 6.433 1.845 3.24 3.923 5.042 3.963 5.094.055.071.088-3.14-.804-6.431-.803-2.955-2.417-5.166-3.615-5.166a.888.888 0 0 0-.35.07m18.495 9.516c-1.492 2.023-2.205 4.413-2.142 4.386.045-.02 2.171-.398 4.438-1.946 2.046-1.4 3.024-3.451 2.144-4.387-.24-.255-.568-.375-.948-.375-1.02 0-2.416.864-3.492 2.322m-4.45-4.42c-.893 3.29-.86 6.502-.805 6.43.04-.052 2.118-1.853 3.963-5.093 1.666-2.928 2.018-5.92.806-6.433a.89.89 0 0 0-.35-.07c-1.198 0-2.812 2.21-3.614 5.166M53.586 0c-1.31.012-2.099 3.115-1.644 6.69.504 3.959 1.761 6.589 1.78 6.657.023.093 1.248-3.072 1.644-6.691C55.758 3.082 54.905 0 53.594 0h-.008" fill="#F9A61A"/><path d="M16.48 32.49c-.577 0-1.155-.04-1.693-.484-.637-.543-.637-1.108-.637-1.772v-9.67c0-.544.079-1.13.598-1.613.517-.483 1.195-.565 1.693-.565h10.02v3.426h-6.893c-.259 0-.539.06-.697.202-.22.18-.22.503-.22.684v1.068h7.61v3.062h-7.61v1.53c0 .284.1.445.2.525.22.202.578.182.856.182h6.812v3.424H16.48zm22.381 0l-4.223-5.46c-.338-.444-.816-1.148-.816-1.753 0-.524.34-1.149.638-1.571l3.745-5.32h5.338l-4.841 5.823c-.518.624-.577.927-.577 1.048 0 .463.439.946.736 1.27l5.42 5.962h-5.42zm-9.98 0h4.503V18.385h-4.502V32.49zm-26.797-.231c-.525 0-1.11-.118-1.48-.433-.312-.257-.604-.768-.604-1.34V18.469h4.403v9.515c0 .157.02.492.213.67.177.158.468.177.701.177h7.072v3.428H2.084z" fill="#009E4D"/><g transform="translate(64.37 17.924)"><mask id="b" fill="#fff"><use xlink:href="#a"/></mask><path d="M.32 3.185c0-.63.038-1.418.525-1.97.507-.572 1.306-.67 1.831-.67h7.422c.857 0 2.356 0 3.254 1.34.583.886.7 2.107.7 3.152 0 .63-.038 2.265-.506 3.388-.506 1.222-1.48 1.714-2.533 1.714h-.584v.079l3.896 4.117H9.026l-2.63-3.586c-.447-.61-.934-1.2-.934-1.87v-.296c0-.926.837-1.557 1.967-1.557h.701c.39 0 .916-.038 1.227-.414.215-.275.293-.787.293-1.142 0-.749-.234-1.064-.331-1.163-.331-.354-.818-.334-1.228-.334H5.657c-.253 0-.488.019-.682.216-.273.257-.254.532-.254.867v9.279H.319V3.185z" fill="#009E4D" mask="url(#b)"/></g><path d="M51.44 15.173c-5.04 1.254-8.12 6.4-6.88 11.496 1.239 5.095 6.328 8.21 11.367 6.957 5.038-1.254 8.118-6.4 6.879-11.497-1.055-4.333-4.893-7.233-9.116-7.234-.743 0-1.497.09-2.25.278M50.11 29.58c-1.846-.758-3.358-2.654-3.55-4.904-.193-2.153.674-4.387 2.355-5.87 1.671-1.493 3.994-2.071 6.051-1.575 1.937.415 3.707 1.644 4.692 3.24a8.223 8.223 0 0 1 1.032 2.422c.199.784.32 1.624.278 2.443a7.192 7.192 0 0 1-1.525 4.115c-1.66 2.066-3.695 2.792-5.097 2.889-.712.044-1.287-.1-1.626-.301-.346-.203-.442-.417-.385-.51.128-.197.734-.049 1.756-.478.993-.403 2.465-1.341 3.417-2.965.467-.805.749-1.756.693-2.77-.055-.974-.45-2.232-1.085-3.098-.638-.893-1.624-1.518-2.823-1.752-1.066-.235-2.305.09-3.18.877a3.88 3.88 0 0 0-1.296 3.058c.051 1.006.694 1.918 1.544 2.34.407.211.923.314 1.323.3.401-.017.786-.15 1.11-.379.659-.436.982-1.317.925-1.953-.055-.649-.518-1.21-1.056-1.44-.57-.25-1.06-.208-1.475.003-.833.442-.975 1.225-1.22 1.2-.106 0-.24-.181-.265-.58-.018-.387.098-1.03.658-1.634a2.774 2.774 0 0 1 1.16-.732c.505-.167 1.063-.185 1.64-.076 1.157.208 2.445 1.17 2.863 2.755.2.798.174 1.607-.067 2.417a4.797 4.797 0 0 1-1.404 2.202 4.85 4.85 0 0 1-2.576 1.17 5.646 5.646 0 0 1-2.866-.414" fill="#F9A61A"/></g></svg>