<svg width="207" height="167" viewBox="0 0 207 167" xmlns="http://www.w3.org/2000/svg"><title>Page 1</title><g fill="#FFF" fill-rule="evenodd" opacity=".5"><path d="M134.027 63.2c-1.093-6.552 4.386-8.375 6.585-12.242 11.272-19.819-2.988-43.682-25.46-44.16-19.383-.411-33.276 15.758-29.411 35.416.35 1.788 5.845 11.31.878 12.68-5.26 1.448-7.974-11.381-8.341-15.304C76.268 18.111 93.154 2.104 109.884.24c30.223-3.367 51.796 29.414 35.996 55.09-1.94 3.152-5.79 10.584-11.853 7.87"/><path d="M58.525 57.079c-13.276-2.987-34.265-2.901-41.702 5.247 1.46 3.823 3.933 6.104 7.023 9.181 2.008 2 7.474 5.09 7.902 7.87.58 3.768-3.943 9.015-5.268 13.992-.872 3.278-.214 5.918-2.195 8.744-10.414 1.584-17.151 2.17-17.12 14.428.019 7.346 2.32 18.629 8.78 21.424 5.536 2.394 11.432.532 18.436 1.311 5.445 6.237 12.44 10.929 18.876 16.178-1.105 7.789-3.246 14.547-4.83 21.86H77.4c2.915-3.363 2.952-9.593 6.146-12.679 8.183 1.612 19.522-1.52 26.777-.437 1.982 4-1.102 8.6-1.756 12.68 4.852.804 9.162.436 13.608.436 4.192 0 10.138 1.275 14.047 0 2.713-.884 7.73-9.582 10.096-13.116 9.104-13.597 18.448-29.788 22.827-46.783 1.277-4.956-.064-13.336 4.389-13.553 7.757-.38.71 19.612-.44 23.172-7.282 22.562-20.342 40.853-33.36 57.275-12.368-.797-27.99 1.646-38.19-1.31-1.99-3.272 1.072-7.57 1.316-11.368-3.918-.598-10.106 1.33-14.924 0-2.681 3.305-2.921 9.041-5.707 12.242-6.261.78-13.183.436-21.51.436-5.243 0-17.8 1.605-19.753-1.749-1.56-2.676 1.465-8.655 2.195-11.803 1.087-4.692 1.33-8.206 2.634-11.806-4.386-4.667-10.188-7.925-14.486-12.679-7.37-.67-15.463.086-20.632-3.498-8.987-6.232-13.498-27.065-8.78-37.601 2.518-5.618 10.118-7.701 17.12-8.744 1.056-5.507 2.578-10.55 4.829-14.866-4.463-7.346-14.485-11.631-13.608-20.549.865-8.789 21.436-12.68 34.24-12.68 3.913 0 9.617 1.522 12.73 1.313 3.474-.233 17.229-8.109 17.559-.875.273 6.001-13.982 4.68-16.242 8.307"/><path d="M131.833 74.13c-4.409 3.147-8.31-1.826-12.293-3.497-6.824-2.865-16.433-4.165-27.216-3.497-3.965.245-10.287 2.165-10.972-1.75-1.046-5.96 14.026-5.574 20.63-5.246 12.534.621 31.707 5.56 29.85 13.99m35.118 7.433c-4.415 2.345-7.741-4.422-10.975-7.87-2.935-3.13-8.58-6.275-8.78-9.18-.133-1.953.71-3.67 3.074-3.936 3.977-.45 7.922 5.45 10.974 8.744 3.498 3.775 8.253 7.544 5.707 12.242"/><path d="M179.24 72.382c-.556 3.451 2.759 6.906 6.147 8.307 1.965-6.72-4.995-15.444-6.146-8.307m25.46-9.619c4.51 11.58.648 23.075-8.78 25.36-1.358.328-3.521-.278-5.267.435-2.47 1.01-4.222 4.096-7.462 5.685-2.064 1.012-18.952 6.81-20.632.874-2.087-7.372 18.124-3.152 19.315-8.308-11.361-3.013-13.015-26.828 2.195-24.046 5.65 1.034 8.177 10.378 8.34 18.8 7.412-.396 7.809-9.432 6.584-17.05.768-1.75 3.372-2.881 5.707-1.75M45.794 89.87c11.883-3.515 10.92 13.601 1.756 13.117-5.33-.282-10.294-10.59-1.756-13.116"/></g></svg>