<svg viewBox="0 0 62 52" xmlns="http://www.w3.org/2000/svg"><title>Group 2</title><g fill="none" fill-rule="evenodd" opacity=".5"><path d="M53.205 43.678c-9.763 9.763-25.592 9.763-35.355 0L1.589 27.417a1.999 1.999 0 0 1 0-2.834l16.26-16.26c9.764-9.764 25.593-9.764 35.356 0 9.763 9.762 9.763 25.592 0 35.355z" stroke="#000" stroke-width="2"/><g fill="#000"><path d="M42.18 26.031a1.109 1.109 0 0 0-.401-.944l-.846-.9-4.577-4.869a1.107 1.107 0 0 0-1.562.146 1.109 1.109 0 0 0 .147 1.567l4.705 5-4.705 5a1.109 1.109 0 0 0-.147 1.567 1.107 1.107 0 0 0 1.562.145l4.577-4.868.846-.9c.29-.24.428-.595.4-.944z"/><path d="M22.01 25.93c-.08.61.348 1.163.958 1.243a14129.213 14129.213 0 0 0 15.632.032c.61.08 1.166-.35 1.248-.961a1.102 1.102 0 0 0-.962-1.238l-15.63-.037a1.109 1.109 0 0 0-1.247.961z"/></g></g></svg>