<svg viewBox="0 0 62 52" xmlns="http://www.w3.org/2000/svg"><title>Group 2 Copy</title><g fill="none" fill-rule="evenodd" opacity=".5"><path d="M8.795 43.678c9.763 9.763 25.592 9.763 35.355 0l16.261-16.261a1.999 1.999 0 0 0 0-2.834l-16.26-16.26c-9.764-9.764-25.593-9.764-35.356 0-9.763 9.762-9.763 25.592 0 35.355z" stroke="#000" stroke-width="2"/><g fill="#000"><path d="M19.82 26.031c-.027-.349.11-.704.401-.944l.846-.9 4.577-4.869a1.107 1.107 0 0 1 1.562.146 1.109 1.109 0 0 1-.147 1.567l-4.705 5 4.705 5c.475.393.543 1.093.147 1.567a1.107 1.107 0 0 1-1.562.145l-4.577-4.868-.846-.9a1.109 1.109 0 0 1-.4-.944z"/><path d="M39.99 25.93c.08.61-.348 1.163-.958 1.243 0 0-12.17.018-14.397.027l-1.235.005a1.114 1.114 0 0 1-1.248-.961c-.078-.61.35-1.165.962-1.238l15.63-.037a1.11 1.11 0 0 1 1.247.961z"/></g></g></svg>