<?xml version="1.0" encoding="UTF-8" standalone="no"?>
<svg viewBox="0 0 16 16" version="1.1" xmlns="http://www.w3.org/2000/svg" xmlns:xlink="http://www.w3.org/1999/xlink">
    <!-- Generator: Sketch 47 (45396) - http://www.bohemiancoding.com/sketch -->
    <title>Fill 1</title>
    <desc>Created with Sketch.</desc>
    <defs></defs>
    <g id="Mobile" stroke="none" stroke-width="1" fill="none" fill-rule="evenodd">
        <g id="page_product_320" transform="translate(-102.000000, -3362.000000)" fill="#B7B7B7">
            <g id="Group-18" transform="translate(0.000000, 2834.000000)">
                <g id="Group-8">
                    <g id="Group-28-Copy" transform="translate(28.000000, 528.000000)">
                        <path d="M90,6.41643636 C89.0640669,7.82071468 88.0294354,9.12226939 87.0866955,10.5207111 C87.0651407,12.2413315 87.1275363,13.8767379 87.1161916,15.5845178 C85.9601724,15.2156466 84.8427251,14.7732348 83.635655,14.3623404 C83.2646852,14.2362705 82.7836723,14.0133136 82.4478708,14.0133136 C82.091649,14.0133136 81.6389977,14.2607841 81.2600866,14.3915232 C80.0972607,14.7954137 78.9298969,15.1794599 77.7806845,15.5845178 C77.7670709,14.2958035 77.8090461,13.1284898 77.8090461,11.8012542 C77.8090461,11.3950291 77.8850552,10.9059246 77.8090461,10.549894 C77.7375748,10.214875 77.3087473,9.82732684 77.0727787,9.50398096 C76.316091,8.45456599 75.5650756,7.41565684 74.9241032,6.41643636 C76.1141563,6.04172867 77.2157212,5.70087309 78.4035054,5.31099033 C78.7710719,5.18958971 79.2475469,5.11488164 79.5345664,4.93278071 C79.7773417,4.77752799 80.0609578,4.24990222 80.2696993,3.94289873 C80.9730672,2.9133281 81.7535786,1.85574193 82.3922821,0.888038914 C82.4104335,0.858856073 82.4127024,0.8098289 82.4478708,0.799323077 C83.1682557,1.81955521 83.8557411,2.81644106 84.5976808,3.91371589 C84.8154979,4.23706177 85.0684835,4.71682768 85.3339481,4.90359787 C85.6062196,5.09737193 86.13488,5.19309165 86.4933707,5.31099033 C87.6471209,5.68919995 88.8235605,6.06390763 90,6.41643636" id="Fill-1"></path>
                    </g>
                </g>
            </g>
        </g>
    </g>
</svg>