<?xml version="1.0" encoding="UTF-8" standalone="no"?>
<svg  viewBox="0 0 25 34" version="1.1" xmlns="http://www.w3.org/2000/svg" xmlns:xlink="http://www.w3.org/1999/xlink">
    <!-- Generator: Sketch 46.2 (44496) - http://www.bohemiancoding.com/sketch -->
    <title>Page 1</title>
    <desc>Created with Sketch.</desc>
    <defs></defs>
    <g id="Pad" stroke="none" stroke-width="1" fill="none" fill-rule="evenodd" stroke-linecap="round" stroke-linejoin="round">
        <g id="page_first_768_01" transform="translate(-464.000000, -24.000000)" stroke-width="2" stroke="#F9A61A">
            <g id="Group-18" transform="translate(465.000000, 25.000000)">
                <g id="Page-1">
                    <path d="M0.628345529,16.2328763 C-1.6996026,8.02409262 3.45905732,1.19952307 10.8077863,0.7216488 C15.1475508,0.439865103 18.3225795,2.53278456 20.2970696,4.93219205 C22.3210742,7.3979924 23.6320686,11.1646298 22.6516794,15.6021441 C21.0755915,22.7185334 15.9892991,27.6231138 11.5703111,31.9540906 C7.33871695,27.8601209 2.49314167,22.8073146 0.628345529,16.2328763 Z" id="Stroke-1"></path>
                    <path d="M17.0026726,11.9346327 C17.0026726,15.001829 14.5497953,17.4869296 11.5233104,17.4869296 C8.4975872,17.4869296 6.04470992,15.001829 6.04470992,11.9346327 C6.04470992,8.86743648 8.4975872,6.38233588 11.5233104,6.38233588 C14.5497953,6.38233588 17.0026726,8.86743648 17.0026726,11.9346327 L17.0026726,11.9346327 Z" id="Stroke-3"></path>
                </g>
            </g>
        </g>
    </g>
</svg>