<?xml version="1.0" encoding="UTF-8" standalone="no"?>
<svg viewBox="0 0 18 21" version="1.1" xmlns="http://www.w3.org/2000/svg" xmlns:xlink="http://www.w3.org/1999/xlink">
    <!-- Generator: Sketch 46.2 (44496) - http://www.bohemiancoding.com/sketch -->
    <title>Fill 5</title>
    <desc>Created with Sketch.</desc>
    <defs></defs>
    <g id="Mobile" stroke="none" stroke-width="1" fill="none" fill-rule="evenodd">
        <g id="page_main_320-copy" transform="translate(-129.000000, -5360.000000)" fill="#B7B7B7">
            <g id="Group-21" transform="translate(0.000000, 4804.000000)">
                <g id="Group-7" transform="translate(62.000000, 498.000000)">
                    <g id="Page-1" transform="translate(1.000000, 48.212490)">
                        <path d="M72.2665767,25.6878431 L75.1117672,25.6878431 C76.0743545,25.6878431 76.7507672,25.505098 77.142582,25.1341176 C77.5375503,24.7631373 77.7346402,24.265098 77.7346402,23.6384314 C77.7346402,23.0572549 77.5414921,22.5905882 77.1504656,22.2376471 C76.7594392,21.8847059 76.0790847,21.7066667 75.0999418,21.7066667 L72.2665767,21.7066667 L72.2665767,25.6878431 Z M72.2665767,17.9678431 L74.6915714,17.9678431 C75.5619206,17.9678431 76.1665926,17.8031373 76.5118942,17.4784314 C76.8516772,17.1490196 77.0195979,16.6776471 77.0195979,16.0643137 C77.0195979,15.492549 76.8516772,15.0447059 76.5118942,14.7239216 C76.1665926,14.3984314 75.573746,14.2384314 74.7294127,14.2384314 L72.2665767,14.2384314 L72.2665767,17.9678431 Z M66.6400529,10.2572549 L77.0826667,10.2572549 C78.8225767,10.2572549 80.1596349,10.7294118 81.0875344,11.6666667 C82.0209524,12.6047059 82.4876614,13.7670588 82.4876614,15.1490196 C82.4876614,16.3113725 82.1557619,17.3090196 81.4911746,18.1419608 C81.0465397,18.6956863 80.3985079,19.134902 79.5447143,19.4556863 C80.8399894,19.7937255 81.7946931,20.3788235 82.4072487,21.2031373 C83.0174392,22.0321569 83.3233228,23.0705882 83.3233228,24.32 C83.3233228,25.3403922 83.1049471,26.2556863 82.6721376,27.0698039 C82.2353862,27.8847059 81.6425397,28.5247059 80.8865026,29.0015686 C80.4197937,29.2941176 79.7142116,29.5090196 78.7681799,29.6415686 C77.510746,29.8203922 76.6798148,29.9121569 76.268291,29.9121569 L66.6400529,29.9121569 L66.6400529,10.2572549 Z" id="Fill-5"></path>
                    </g>
                </g>
            </g>
        </g>
    </g>
</svg>