<?xml version="1.0" encoding="UTF-8" standalone="no"?>
<svg viewBox="0 0 11 21" version="1.1" xmlns="http://www.w3.org/2000/svg" xmlns:xlink="http://www.w3.org/1999/xlink">
    <!-- Generator: Sketch 46.2 (44496) - http://www.bohemiancoding.com/sketch -->
    <title>Fill 9</title>
    <desc>Created with Sketch.</desc>
    <defs></defs>
    <g id="Mobile" stroke="none" stroke-width="1" fill="none" fill-rule="evenodd">
        <g id="page_main_320-copy" transform="translate(-187.000000, -5360.000000)" fill="#B7B7B7">
            <g id="Group-21" transform="translate(0.000000, 4804.000000)">
                <g id="Group-7" transform="translate(62.000000, 498.000000)">
                    <g id="Page-1" transform="translate(1.000000, 48.212490)">
                        <path d="M126.882014,20.096549 C126.934834,20.1632157 126.904877,20.6220392 126.904877,20.7075294 L126.907242,30.3898824 L131.127332,30.3898824 C131.151771,27.8416471 131.12812,25.2259608 131.12812,22.6651765 C131.12812,22.629098 131.119448,20.1851765 131.131274,20.1341961 C131.139157,20.1012549 131.139946,20.1051765 131.148617,20.0910588 C131.154924,20.0918431 133.832983,20.1130196 133.926797,20.0902745 L133.973311,20.0769412 L134.34384,16.5428235 L131.140734,16.5428235 C131.128908,16.0204706 131.143887,15.484 131.143887,14.9608627 C131.144676,14.4832157 131.133639,13.8926275 131.419813,13.6306667 L134.327284,13.3396863 L134.322554,9.79458824 C133.772279,9.76164706 133.119517,9.79145098 132.557416,9.79145098 C131.97403,9.79145098 131.381972,9.77968627 130.807258,9.81811765 C129.712226,9.8894902 128.828475,10.2141961 128.187538,10.7569412 C127.261215,12.2353725 126.902512,10.9647843 126.896205,16.5443922 L124.774729,16.5451765 L124.779459,20.0949804 L126.882014,20.096549 Z" id="Fill-9"></path>
                    </g>
                </g>
            </g>
        </g>
    </g>
</svg>