<?xml version="1.0" encoding="UTF-8"?>
<svg viewBox="0 0 42 36" version="1.1" xmlns="http://www.w3.org/2000/svg" xmlns:xlink="http://www.w3.org/1999/xlink">
    <!-- Generator: Sketch 47 (45396) - http://www.bohemiancoding.com/sketch -->
    <title>Page 1</title>
    <desc>Created with Sketch.</desc>
    <defs></defs>
    <g id="Mobile" stroke="none" stroke-width="1" fill="none" fill-rule="evenodd">
        <g id="page_cart_320" transform="translate(-35.000000, -1144.000000)">
            <g id="Group-17" transform="translate(36.000000, 1145.000000)">
                <g id="Page-1">
                    <path d="M19.3164,0 C29.9794,0 38.6294,6.979 38.6294,15.586 C38.6294,19.016 37.2504,22.188 34.9144,24.768 L38.5044,33.689 L23.2924,30.635 C21.7064,30.676 19.9224,31.062 18.1394,31.106 C17.9364,31.109 17.7334,31.112 17.5394,31.112 C7.1984,31.112 0.000400000001,24.024 0.000400000001,15.586 C0.000400000001,6.979 8.6444,0 19.3164,0" id="Stroke-1" stroke="#F9A61A" stroke-width="2"></path>
                    <path d="M18.9624,19.0879 C18.4564,12.3159 18.1054,8.0949 17.9104,6.4259 C18.5314,6.2569 19.3794,6.1729 20.4534,6.1729 C21.4654,6.1729 22.0044,6.4819 22.0714,7.0989 C22.1384,7.7149 21.9094,11.7119 21.3854,19.0879 L18.9624,19.0879 Z M20.1074,24.6139 C19.3434,24.6139 18.7824,24.4519 18.4234,24.1279 C18.0634,23.8039 17.8834,23.3359 17.8834,22.7239 C17.8834,22.1099 18.0834,21.6449 18.4834,21.3249 C18.8824,21.0059 19.4234,20.8459 20.1074,20.8459 C20.8794,20.8459 21.4454,21.0059 21.8054,21.3249 C22.1644,21.6449 22.3444,22.1099 22.3444,22.7239 C22.3444,23.3359 22.1444,23.8039 21.7454,24.1279 C21.3454,24.4519 20.7994,24.6139 20.1074,24.6139 L20.1074,24.6139 Z" id="Fill-3" fill="#231F20"></path>
                </g>
            </g>
        </g>
    </g>
</svg>