<?xml version="1.0" encoding="UTF-8" standalone="no"?>
<svg  viewBox="0 0 111 32" version="1.1" xmlns="http://www.w3.org/2000/svg" xmlns:xlink="http://www.w3.org/1999/xlink">
    <!-- Generator: Sketch 46.2 (44496) - http://www.bohemiancoding.com/sketch -->
    <title>Page 1</title>
    <desc>Created with Sketch.</desc>
    <defs>
        <polygon id="path-1" points="7.592 9.0004 7.592 0.384622911 0.796588903 0.384622911 0.796588903 9.0004 7.592 9.0004"></polygon>
        <polygon id="path-3" points="30.1453 0.678 0.993518508 0.678 0.993518508 20.4918691 30.1453 20.4918691 30.1453 0.678"></polygon>
    </defs>
    <g id="Mobile" stroke="none" stroke-width="1" fill="none" fill-rule="evenodd">
        <g id="page_main_320-copy" transform="translate(-63.000000, -5671.000000)">
            <g id="Group-21" transform="translate(0.000000, 4804.000000)">
                <g id="Page-1" transform="translate(63.000000, 866.000000)">
                    <path d="M49.7124,12.2774 L49.7074,12.3034 C49.5154,13.2974 48.6414,13.6944 47.9104,13.6424 C47.1864,13.5914 46.4054,13.0684 46.4054,12.0394 L46.4054,7.9494 C46.4054,7.1534 46.2374,6.6564 45.4004,6.6404 C45.0664,6.6334 44.8194,6.7004 44.6484,6.8434 C44.3344,7.1054 44.2974,7.5994 44.2974,7.9494 L44.2974,11.9834 C44.2974,12.9974 43.3654,13.6244 42.5014,13.6244 C41.7904,13.6244 40.9594,13.1824 40.9594,11.9354 L40.9594,7.9494 C40.9594,6.9834 40.6814,6.6404 39.8984,6.6404 C39.0454,6.6404 38.8654,7.3524 38.8654,7.9494 L38.8654,11.9904 C38.8654,12.3184 38.9604,15.2004 42.1984,15.2004 C44.2864,15.2004 45.0784,14.0494 45.1104,14.0014 L45.4374,13.5104 L45.7704,13.9994 C45.8044,14.0484 46.6084,15.2004 48.7604,15.2004 C50.5554,15.2004 51.8054,13.7664 51.8054,12.4794 L51.8054,7.6114 C51.8054,7.4054 51.7024,6.6324 50.7964,6.6324 C49.8914,6.6324 49.7124,7.3794 49.7124,7.6114 L49.7124,12.2774 Z" id="Fill-1" fill="#F26F27"></path>
                    <path d="M65.562,11.9356 C65.562,13.1396 64.858,13.7496 63.972,13.7496 C63.047,13.7496 62.383,13.1396 62.383,11.9356 L62.383,9.8976 C62.383,8.8366 62.879,7.9956 63.972,7.9206 C65.066,7.9956 65.562,8.8366 65.562,9.8976 L65.562,11.9356 Z M67.514,9.2586 C67.393,7.9456 66.608,6.6326 64.255,6.6326 C63.64,6.6326 62.905,6.9086 62.427,7.2696 L62.427,4.2896 C62.427,4.0836 62.329,3.3116 61.462,3.3116 C60.597,3.3116 60.426,4.0576 60.426,4.2896 L60.426,9.5746 C60.414,9.7006 60.411,9.7976 60.411,9.8426 L60.411,11.4896 C60.411,11.4896 60.463,12.6506 60.664,13.2236 C61.207,14.7696 62.686,15.2066 64.044,15.2066 C64.986,15.2066 66.112,14.8686 66.82,14.0986 C67.245,13.6376 67.491,13.0086 67.532,12.2466 L67.532,10.3436 L67.514,9.2586 Z" id="Fill-3" fill="#F26F27"></path>
                    <path d="M54.6582,9.8975 C54.6582,8.7985 55.1872,7.9325 56.3642,7.9145 C56.9312,7.9575 57.5382,8.2695 57.5572,9.3175 C57.4252,9.8305 55.3362,10.3015 54.6582,10.5235 L54.6582,9.8975 Z M59.4382,9.6635 L59.4572,9.6455 C59.6222,8.3195 58.7542,6.6065 56.2572,6.6325 C53.7622,6.6595 53.0182,8.3225 53.0182,8.3225 C53.0182,8.3225 53.0242,8.3335 53.0272,8.3365 C52.7082,9.0265 52.6852,9.6945 52.6852,9.8425 L52.6852,11.9905 C52.6852,12.3185 52.7802,15.2005 56.0172,15.2005 C58.1072,15.2005 59.0502,14.0495 59.0812,14.0015 L59.1822,13.8495 C60.0302,12.3235 58.0382,12.1685 57.6462,12.8375 C57.3992,13.2605 56.9782,13.6245 56.3212,13.6245 C55.6322,13.6245 54.7262,13.2045 54.6692,12.0445 C54.9282,11.9505 56.5682,11.3495 58.0092,10.9005 C59.1812,10.5355 59.4102,10.0965 59.4382,9.6635 L59.4382,9.6635 Z" id="Fill-5" fill="#F26F27"></path>
                    <path d="M5.1187,19.5323 C5.3197,19.7463 5.6437,20.0743 6.0507,20.4203 C6.4187,20.7333 6.9007,20.9063 7.4067,20.9033 L7.4577,20.9033 L7.5517,20.8973 C8.0607,20.8553 8.7887,20.4583 9.0737,20.2023 L9.0917,20.1863 L9.1097,20.1663 C9.1167,20.1593 9.8267,19.4333 10.9087,18.4593 C10.9087,18.4593 12.1177,17.3613 12.6977,16.8363 C13.1297,17.2413 16.1187,20.0393 16.1187,20.0393 C16.3937,20.2963 17.0367,20.8993 18.0977,20.8993 C19.0507,20.8993 19.5887,20.3953 19.9107,20.0953 L20.0067,20.0063 C19.9977,20.0133 21.0577,19.0493 22.5717,17.5773 L25.5597,14.8873 L26.1157,14.3863 L24.6397,13.0243 C24.2657,12.7053 23.7977,12.5383 23.2817,12.5393 L23.2387,12.5403 L23.1467,12.5453 C22.6697,12.5853 22.2417,12.7663 21.9167,13.0583 L19.7857,14.9793 C19.7857,14.9793 18.5717,16.0813 17.9907,16.6063 C17.5517,16.1943 14.1257,12.9833 14.1257,12.9833 C13.7637,12.6433 13.2597,12.4453 12.7417,12.4373 C12.2167,12.4353 11.7097,12.6263 11.3417,12.9593 C11.3397,12.9603 8.1327,15.8503 8.1327,15.8503 C8.1297,15.8523 4.6457,19.0283 4.6457,19.0283 L5.1187,19.5323 Z" id="Fill-7" fill="#F26F27"></path>
                    <path d="M27.4863,22.3721 C26.5863,22.2481 25.9243,23.1751 25.6523,23.5831 C23.4613,26.8691 19.7933,28.7871 15.5723,28.7871 C9.4343,28.7871 4.3273,24.3631 3.3523,18.5811 L3.8563,18.1191 C3.8583,18.1201 3.8623,18.1251 3.8623,18.1251 L6.5963,15.6101 L3.8353,13.0541 C3.7573,12.9781 3.6183,12.8551 3.4443,12.7401 C3.3853,12.6981 3.3203,12.6591 3.2493,12.6261 C3.2303,12.6151 3.2113,12.6041 3.1913,12.5961 C3.1823,12.5931 3.1733,12.5881 3.1643,12.5851 C3.0413,12.5291 2.9083,12.4891 2.7703,12.4731 C2.4403,12.4121 2.0733,12.4201 1.7353,12.5081 C1.0443,12.6891 0.5273,13.1751 0.2793,13.8761 L0.2603,13.9281 L0.2503,13.9821 C0.0843,14.9061 0.0003,15.8371 0.0003,16.7471 C0.0003,25.2551 6.9823,32.2401 15.5663,32.3211 C20.9593,32.3711 25.6703,29.9191 28.5493,25.6631 C28.9603,25.0561 29.8783,22.7021 27.4863,22.3721" id="Fill-9" fill="#F26F27"></path>
                    <path d="M94.3975,17.7237 C93.5305,17.7237 93.3605,18.4697 93.3605,18.7027 L93.3605,20.4927 L93.3605,23.5417 L93.3605,25.3057 C93.3605,25.5377 93.5305,26.2847 94.3975,26.2847 C95.2635,26.2847 95.3635,25.5117 95.3635,25.3057 L95.3635,23.5717 L95.3635,20.4377 L95.3635,18.7027 C95.3635,18.4957 95.2635,17.7237 94.3975,17.7237" id="Fill-11" fill="#FEFEFE"></path>
                    <path d="M49.7124,20.6455 L49.7074,20.6205 C49.5164,19.6275 48.6414,19.2305 47.9104,19.2815 C47.1864,19.3325 46.4054,19.8565 46.4054,20.8845 L46.4054,24.9745 C46.4054,25.7715 46.2374,26.2675 45.4004,26.2835 C45.0654,26.2905 44.8194,26.2235 44.6484,26.0815 C44.3334,25.8185 44.2964,25.3245 44.2964,24.9745 L44.2964,20.9395 C44.2964,19.9265 43.3654,19.2985 42.5014,19.2985 C41.7904,19.2985 40.9584,19.7425 40.9584,20.9875 L40.9584,24.9745 C40.9584,25.9415 40.6814,26.2835 39.8974,26.2835 C39.0454,26.2835 38.8654,25.5725 38.8654,24.9745 L38.8654,20.9335 C38.8654,20.6045 38.9684,17.7495 42.6194,17.7235 C44.7084,17.7095 45.4374,19.0875 45.4374,19.0875 C45.4374,19.0875 46.0294,17.5955 48.5334,17.7495 C50.3224,17.8605 51.8054,19.1655 51.8054,20.7885 L51.8054,25.3125 C51.8054,25.5185 51.7024,26.2915 50.7964,26.2915 C49.8914,26.2915 49.7124,25.5445 49.7124,25.3125 L49.7124,20.6455 Z" id="Fill-13" fill="#FEFEFE"></path>
                    <path d="M88.2437,17.7237 C84.5917,17.7497 84.4907,20.6047 84.4907,20.9337 L84.4907,24.9747 C84.4907,25.5727 84.6687,26.2837 85.5217,26.2837 C86.3057,26.2837 86.5827,25.9417 86.5827,24.9747 L86.5827,20.9877 C86.5827,19.7427 87.4177,19.3507 88.1257,19.2987 C89.2537,19.2167 89.9217,19.9267 89.9217,20.9397 L89.9217,24.9747 C89.9217,25.3247 89.9577,25.8187 90.2717,26.0807 C90.4427,26.2237 90.6897,26.2897 91.0247,26.2837 C91.8617,26.2677 92.0297,25.7717 92.0297,24.9747 L92.0297,20.8847 C92.0297,18.9097 90.3317,17.7097 88.2437,17.7237" id="Fill-15" fill="#FEFEFE"></path>
                    <path d="M71.813,17.7237 C71.102,17.7287 70.528,17.8427 70.062,18.0227 L70.062,15.3807 C70.062,15.1747 69.961,14.4027 69.096,14.4027 C68.23,14.4027 68.059,15.1497 68.059,15.3807 L68.059,24.9747 C68.059,25.5727 68.238,26.2837 69.091,26.2837 C69.874,26.2837 70.152,25.9417 70.152,24.9747 L70.152,20.9877 C70.152,19.7427 70.985,19.3507 71.694,19.2987 C72.823,19.2167 73.49,19.9267 73.49,20.9397 L73.49,24.9747 C73.49,25.3247 73.527,25.8187 73.841,26.0807 C74.012,26.2237 74.259,26.2897 74.593,26.2837 C75.431,26.2677 75.6,25.7717 75.6,24.9747 L75.6,20.8847 C75.6,18.9097 73.901,17.7097 71.813,17.7237" id="Fill-17" fill="#FEFEFE"></path>
                    <path d="M65.4619,23.9287 C65.2139,24.3517 64.7949,24.7157 64.1369,24.7157 C63.4249,24.7157 62.4729,24.2737 62.4729,23.0267 L62.4729,22.5797 L62.4729,21.4347 L62.4729,20.9877 C62.4729,19.8897 62.9869,19.1587 64.1649,19.1397 C64.6089,19.1737 65.0149,19.3807 65.2199,19.9637 C65.2889,20.1587 65.7809,20.8507 66.4869,20.7097 C67.3929,20.5307 67.2679,19.8147 67.0739,19.3667 C66.6829,18.4657 65.7419,17.7057 64.0729,17.7237 C61.5759,17.7497 60.8329,19.4127 60.8329,19.4127 C60.8329,19.4127 60.8399,19.4237 60.8419,19.4277 C60.5229,20.1167 60.5019,20.7847 60.5019,20.9337 L60.5019,21.4347 L60.5019,22.5797 L60.5019,23.0807 C60.5139,23.5417 60.8269,26.2907 64.0659,26.2907 C66.1549,26.2907 66.8639,25.1407 66.8969,25.0917 L66.9989,24.9407 C67.8449,23.4137 65.8529,23.2587 65.4619,23.9287" id="Fill-19" fill="#FEFEFE"></path>
                    <path d="M54.7783,20.9873 C54.7783,19.8893 55.3073,19.0243 56.4843,19.0053 C57.0513,19.0493 57.6583,19.3603 57.6773,20.4083 C57.5453,20.9223 55.4563,21.3913 54.7783,21.6143 L54.7783,20.9873 Z M59.5583,20.7543 L59.5773,20.7363 C59.7433,19.4113 58.8743,17.6983 56.3793,17.7233 C53.8823,17.7503 53.1383,19.4133 53.1383,19.4133 C53.1383,19.4133 53.1443,19.4243 53.1473,19.4273 C52.8293,20.1173 52.8063,20.7853 52.8063,20.9333 L52.8063,23.0813 C52.8063,23.4093 52.9003,26.2913 56.1383,26.2913 C58.2273,26.2913 59.1693,25.1403 59.2013,25.0913 L59.3023,24.9403 C60.1513,23.4143 58.1603,23.2583 57.7663,23.9283 C57.5183,24.3513 57.0993,24.7163 56.4423,24.7163 C55.7523,24.7163 54.8463,24.2943 54.7893,23.1353 C55.0493,23.0403 56.6893,22.4403 58.1303,21.9913 C59.3033,21.6253 59.5303,21.1873 59.5583,20.7543 L59.5583,20.7543 Z" id="Fill-21" fill="#FEFEFE"></path>
                    <path d="M81.3271,23.9287 C81.3271,25.0267 80.8131,25.0297 79.8701,24.9847 C79.2861,24.9397 78.4551,24.8267 78.4271,23.5257 C78.4611,22.6607 78.6651,22.1327 79.4471,21.9207 C80.1111,21.7407 81.2571,22.0997 81.3181,22.4867 C81.3181,22.4867 81.3251,22.4717 81.3271,22.4657 L81.3271,23.9287 Z M79.8091,17.7237 C77.9171,17.6537 77.3871,17.7917 77.1911,18.3477 C76.9881,18.9277 77.6111,19.2307 78.4901,19.2307 C78.9871,19.2307 79.2231,19.1967 79.5681,19.1967 C80.2801,19.1967 81.4361,19.6277 81.4371,21.1177 C81.4271,21.1037 81.4221,21.0837 81.4091,21.0717 C81.0471,20.7097 79.3871,20.1117 77.8481,20.9427 C76.4371,21.7037 76.4821,23.0727 76.5121,23.6387 C76.5131,23.6527 76.5191,23.6657 76.5211,23.6787 C76.4491,25.1097 77.4721,26.3227 79.8391,26.3227 C81.6511,26.3227 83.3001,26.1927 83.3001,23.7747 L83.3001,20.9337 C83.3001,20.6047 83.0451,17.8447 79.8091,17.7237 L79.8091,17.7237 Z" id="Fill-23" fill="#FEFEFE"></path>
                    <path d="M101.4448,23.9287 C101.1968,24.3517 100.7778,24.7157 100.1198,24.7157 C99.4078,24.7157 98.4568,24.2737 98.4568,23.0267 L98.4568,22.5797 L98.4568,21.4347 L98.4568,20.9877 C98.4568,19.8897 98.9708,19.1587 100.1478,19.1397 C100.5928,19.1737 100.9978,19.3807 101.2038,19.9637 C101.2728,20.1587 101.7648,20.8507 102.4698,20.7097 C103.3758,20.5307 103.2518,19.8147 103.0578,19.3667 C102.6668,18.4657 101.7238,17.7057 100.0568,17.7237 C97.5608,17.7497 96.8168,19.4127 96.8168,19.4127 C96.8168,19.4127 96.8228,19.4237 96.8258,19.4277 C96.5068,20.1167 96.4848,20.7847 96.4848,20.9337 L96.4848,21.4347 L96.4848,22.5797 L96.4848,23.0807 C96.4958,23.5417 96.8108,26.2907 100.0498,26.2907 C102.1368,26.2907 102.8468,25.1407 102.8798,25.0917 L102.9818,24.9407 C103.8278,23.4137 101.8368,23.2587 101.4448,23.9287" id="Fill-25" fill="#FEFEFE"></path>
                    <g id="Group-29" transform="translate(103.000000, 17.322300)">
                        <mask id="mask-2" fill="white">
                            <use xlink:href="#path-1"></use>
                        </mask>
                        <g id="Clip-28"></g>
                        <path d="M5.6206,6.6064 C5.6206,7.7044 5.1066,7.7074 4.1636,7.6624 C3.5786,7.6174 2.7476,7.5044 2.7206,6.2034 C2.7546,5.3384 2.9576,4.8104 3.7406,4.5984 C4.4046,4.4184 5.5506,4.7774 5.6116,5.1644 C5.6116,5.1644 5.6176,5.1494 5.6206,5.1414 L5.6206,6.6064 Z M4.1026,0.4014 C2.2096,0.3314 1.6806,0.4694 1.4856,1.0254 C1.2806,1.6054 1.9046,1.9084 2.7836,1.9084 C3.2806,1.9084 3.5166,1.8744 3.8616,1.8744 C4.5726,1.8744 5.7306,2.3054 5.7316,3.7974 C5.7206,3.7824 5.7156,3.7614 5.7026,3.7494 C5.3396,3.3874 3.6796,2.7894 2.1416,3.6204 C0.7296,4.3814 0.7756,5.7504 0.8066,6.3164 C0.8076,6.3284 0.8126,6.3394 0.8146,6.3524 C0.7376,7.7844 1.7626,9.0004 4.1326,9.0004 C5.9436,9.0004 7.5926,8.8704 7.5926,6.4524 L7.5926,3.6114 C7.5926,3.2824 7.3376,0.5224 4.1026,0.4014 L4.1026,0.4014 Z" id="Fill-27" fill="#FEFEFE" mask="url(#mask-2)"></path>
                    </g>
                    <g id="Group-32" transform="translate(1.000000, 0.322300)">
                        <mask id="mask-4" fill="white">
                            <use xlink:href="#path-3"></use>
                        </mask>
                        <g id="Clip-31"></g>
                        <path d="M14.6313,0.6777 C9.5833,0.6777 4.8643,3.0117 1.9543,6.7937 C1.3913,7.5257 0.4343,8.9717 1.4193,9.9287 C2.9033,11.3717 4.4813,9.5017 5.0363,8.8067 C7.3333,5.9227 10.7983,4.2107 14.5723,4.2107 C20.3453,4.2107 25.3443,8.4447 26.6353,13.9377 L23.1193,17.0467 L24.9503,18.7237 L25.4443,19.1437 C25.7403,19.4007 26.0213,19.6417 26.2983,19.8407 L26.2943,19.8577 L26.6943,20.1197 C27.2863,20.5307 28.0603,20.6067 28.7633,20.3207 C29.3673,20.0747 29.7953,19.5237 29.9653,18.7657 L29.9713,18.7407 L29.9753,18.7157 C30.0883,17.9527 30.1453,17.1827 30.1453,16.4247 C30.1453,7.7417 23.1853,0.6777 14.6313,0.6777" id="Fill-30" fill="#FEFEFE" mask="url(#mask-4)"></path>
                    </g>
                </g>
            </g>
        </g>
    </g>
</svg>