<?xml version="1.0" encoding="UTF-8" standalone="no"?>
<svg viewBox="0 0 24 20" version="1.1" xmlns="http://www.w3.org/2000/svg" xmlns:xlink="http://www.w3.org/1999/xlink">
    <!-- Generator: Sketch 47 (45396) - http://www.bohemiancoding.com/sketch -->
    <title>Page 1</title>
    <desc>Created with Sketch.</desc>
    <defs></defs>
    <g id="Mobile" stroke="none" stroke-width="1" fill="none" fill-rule="evenodd">
        <g id="page_product_320" transform="translate(-75.000000, -969.000000)" stroke="#F9A61A" stroke-width="2">
            <g id="Group-23" transform="translate(0.000000, 645.000000)">
                <g id="Group-12" transform="translate(30.000000, 324.000000)">
                    <g id="Page-1" transform="translate(45.000000, 0.000000)">
                        <path d="M17.5459772,1.81354031 L17.5465456,1.81343219 C16.8996052,1.93668177 16.6280065,2.42500539 16.7714562,3.06353055 C16.9199988,3.72472516 17.4237704,4.1038025 18.1120625,3.97038129 C18.6115133,3.87354679 18.919107,3.32091143 18.8200895,2.66082124 C18.7213141,2.00234455 18.3033713,1.66970209 17.5459772,1.81354031 Z" id="Stroke-1"></path>
                        <path d="M19.1546174,7.30510424 C19.1710974,7.30437314 19.1886253,7.30360039 19.2073875,7.30277664 C19.764921,7.27822002 19.987804,7.25266714 20.1507563,7.19170345 C20.1935681,7.17565839 20.2939969,7.10674948 20.4313079,6.98306456 C20.4642261,6.95341303 20.4976176,6.92226493 20.5327257,6.88841869 C20.3958626,6.96421295 20.2567031,7.02722151 20.109697,7.07994345 C20.0735548,7.09269287 20.0735548,7.09269287 20.0373213,7.10460887 C19.7431312,7.19972006 19.4694565,7.26315823 19.1546174,7.30510424 Z M18.3147551,7.36881734 C18.0337425,7.37869711 17.7120993,7.3824005 17.330868,7.38305669 C17.2417118,7.38321018 17.2417118,7.38321018 17.1533676,7.38343781 C15.9661805,7.38700481 15.3820447,7.45087887 14.9069929,7.66615135 C14.691093,7.76385606 14.4095685,7.94140486 14.07315,8.19127602 C13.9072309,8.31451058 13.7305505,8.45319609 13.5339272,8.61356086 C13.3356251,8.77529481 12.6131534,9.3849857 12.4621683,9.5069352 C12.4376906,9.52671244 11.9343135,9.92698621 11.7884614,10.0474163 C11.0675111,10.6427048 10.7206433,11.0780388 10.6823158,11.4169168 C10.6198547,11.9670327 10.7842241,12.2446493 11.4810934,12.8585567 C11.5285766,12.9003871 11.7239454,13.0708586 11.7734643,13.1144469 C12.3842151,13.6520517 12.7462103,14.0456974 13.0513288,14.593507 L13.3215289,15.0786241 L13.0525816,15.5644369 C12.7759559,16.0641194 12.43803,16.4081428 11.8628897,16.8715781 C11.8220466,16.9044885 11.6463348,17.0448144 11.6016373,17.0809211 C11.1331822,17.4593403 11.0268752,17.607766 11.0314167,17.8022972 C11.0331684,17.8758692 11.0890629,17.9338108 11.1619125,17.9407631 C11.3078796,17.9039597 11.5928152,17.6816299 11.9755329,17.2739429 C12.0337775,17.2118983 12.5347204,16.6556077 12.6725932,16.5179932 C12.7818673,16.4087191 12.9013966,16.2996768 13.0638074,16.1582176 C13.1017233,16.1251929 13.3728885,15.8915937 13.4504389,15.8234732 C13.9643073,15.3720898 14.1794241,15.0884307 14.1808054,14.9785787 C14.181419,14.9363341 13.9388365,14.5516676 13.5568773,14.089959 C13.5420844,14.072286 13.4899099,14.0185942 13.4040289,13.9345874 C13.377544,13.9086806 13.1590838,13.6972225 13.0891162,13.6284214 C13.0345603,13.5746207 13.0345603,13.5746207 12.9792804,13.5192853 C12.8034517,13.3424631 12.6670323,13.1939441 12.5561537,13.0518384 C12.2997291,12.723196 12.1667485,12.4651605 12.2134246,12.0552525 C12.2759791,11.4731476 12.5574824,11.2178918 13.5848955,10.4431217 C13.6495741,10.3943477 13.6854727,10.3675862 13.7861067,10.2930853 C14.0927368,10.0667908 14.8744833,9.51268694 14.8990935,9.49296122 C15.0505601,9.3714976 15.8142579,8.70733134 15.798188,8.72107175 C15.926701,8.61118782 16.0437335,8.51322629 16.1565798,8.42153861 C16.7333777,7.95289015 17.1831452,7.65751152 17.6273947,7.51725685 C17.84791,7.44783045 18.0678614,7.40125877 18.3147551,7.36881734 Z M18.3147551,7.36881734 C18.4923924,7.34547608 18.6839768,7.32944956 18.899753,7.3174883 C18.9758318,7.31327098 19.0397819,7.31019867 19.1546174,7.30510424 C18.9093615,7.33777967 18.6391262,7.35741319 18.3147551,7.36881734 Z" id="Stroke-3"></path>
                        <path d="M10.5749698,5.5035007 C9.79460669,5.66407551 8.93995668,5.98938235 7.88760416,6.47807546 C7.73880888,6.54717324 7.60493056,6.61004122 7.31733629,6.74545751 C5.12945577,7.77465093 3.70774268,8.26929641 2.15157175,8.29598525 C2.77355475,9.99266624 3.71613773,11.1968579 5.03429732,11.9410175 C5.6038363,11.4693008 6.16214541,10.936356 6.73274487,10.3267096 C6.78931454,8.83940532 7.46156217,7.91338981 8.85704124,6.85146133 C8.87447348,6.83819579 9.49762136,6.37200107 9.67281298,6.23481734 C9.72060901,6.19727636 9.72060901,6.19727636 9.76854059,6.15912403 C9.86107034,6.08532054 10.262173,5.75696292 10.5749698,5.5035007 Z" id="Stroke-5"></path>
                        <path d="M9.23161012,14.0388467 C8.4475504,14.8210435 7.69859321,15.5416023 6.93210648,16.2454204 C6.76322555,16.4004735 5.96177645,17.0793071 5.78517309,17.2355639 C5.51038639,17.4786922 5.28812129,17.6903269 5.10716201,17.8845294 C4.81636282,18.1966102 4.68079936,18.4233641 4.6807636,18.4182679 C4.68144231,18.497813 4.68943285,18.5049201 4.88039515,18.4709494 C4.83710537,18.4785715 4.97687727,18.3859022 5.17336224,18.2120606 C5.23827866,18.1546253 5.30805515,18.0905588 5.39247112,18.0112385 C5.44428029,17.9625566 5.62857078,17.787537 5.66403838,17.7541112 C5.77618969,17.6484163 5.86213279,17.5697417 5.94550147,17.4976996 C6.38751959,17.1162841 6.69564973,16.8436434 7.44922706,16.1711603 L7.46813025,16.1542916 C8.11100688,15.5806135 8.44647537,15.2839872 8.86295242,14.9241737 C8.95552483,14.8441762 9.06270511,14.7631413 9.22504032,14.6465791 C9.25280822,14.6266408 9.49006873,14.4580166 9.58902312,14.3868169 C9.54094565,14.340084 9.48524198,14.2859477 9.42033642,14.2228656 L9.3989584,14.2020832 C9.33845883,14.1432541 9.28294942,14.0891222 9.23161012,14.0388467 Z" id="Stroke-7"></path>
                    </g>
                </g>
            </g>
        </g>
    </g>
</svg>