<?xml version="1.0" encoding="UTF-8" standalone="no"?>
<svg viewBox="0 0 207 167" version="1.1" xmlns="http://www.w3.org/2000/svg" xmlns:xlink="http://www.w3.org/1999/xlink">
    <!-- Generator: Sketch 46.2 (44496) - http://www.bohemiancoding.com/sketch -->
    <title>Page 1</title>
    <desc>Created with Sketch.</desc>
    <defs></defs>
    <g id="Mobile" stroke="none" stroke-width="1" fill="none" fill-rule="evenodd" opacity="0.5">
        <g id="page_main_320-copy" transform="translate(-91.000000, -4618.000000)" fill="#FFFFFF">
            <g id="Group-14" transform="translate(0.000000, 4329.000000)">
                <g id="Page-1">
                    <g transform="translate(91.000000, 289.000000)">
                        <path d="M134.0269,63.199952 C132.9339,56.6481332 138.4129,54.8254168 140.6119,50.9578716 C151.8839,31.1390678 137.6239,7.2764233 115.1519,6.79833376 C95.7689,6.38697754 81.8759,22.5563644 85.7409,42.213813 C86.0919,44.0016687 91.5859,53.5236188 86.6189,54.8931462 C81.3589,56.3423551 78.6449,43.5126229 78.2779,39.5902966 C76.2689,18.1111277 93.1539,2.10409202 109.8839,0.240538803 C140.1069,-3.12700444 161.6799,29.6540022 145.8799,55.3303989 C143.9399,58.4818058 140.0899,65.9141062 134.0269,63.199952" id="Fill-1"></path>
                        <g id="Group-5" transform="translate(0.000000, 45.250180)">
                            <path d="M58.5249,11.8287322 C45.2489,8.84166856 24.2599,8.92732627 16.8229,17.075765 C18.2829,20.8984893 20.7559,23.1793749 23.8459,26.2570763 C25.8539,28.2560882 31.3199,31.347734 31.7479,34.1276255 C32.3279,37.8945727 27.8049,43.1416055 26.4799,48.1187169 C25.6079,51.3966183 26.2659,54.0370671 24.2849,56.8627755 C13.8709,58.4464471 7.1339,59.0321068 7.1659,71.2911196 C7.1839,78.6367663 9.4849,89.9196796 15.9449,92.7145114 C21.4809,95.1089432 27.3769,93.246386 34.3809,94.0262696 C39.8259,100.26235 46.8209,104.9546 53.2569,110.203625 C52.1519,117.9925 50.0109,124.750495 48.4279,132.064269 L77.3999,132.064269 C80.3149,128.70071 80.3519,122.470606 83.5459,119.384936 C91.7289,120.996496 103.0679,117.864014 110.3229,118.947683 C112.3049,122.948695 109.2209,127.547319 108.5669,131.627016 C113.4189,132.431801 117.7289,132.064269 122.1749,132.064269 C126.3669,132.064269 132.3129,133.339175 136.2219,132.064269 C138.9349,131.179804 143.9529,122.481562 146.3179,118.947683 C155.4219,105.351016 164.7659,89.1597164 169.1449,72.164629 C170.4219,67.2084341 169.0809,58.8289187 173.5339,58.6117864 C181.2909,58.2323028 174.2449,78.223418 173.0949,81.7841891 C165.8119,104.346032 152.7519,122.636941 139.7339,139.059317 C127.3659,138.261505 111.7439,140.704742 101.5439,137.748555 C99.5539,134.476629 102.6159,130.178804 102.8599,126.38098 C98.9419,125.782372 92.7539,127.711662 87.9359,126.38098 C85.2549,129.685774 85.0149,135.421852 82.2289,138.62306 C75.9679,139.401948 69.0459,139.059317 60.7189,139.059317 C55.4759,139.059317 42.9199,140.663905 40.9659,137.310306 C39.4059,134.634 42.4309,128.654893 43.1609,125.506474 C44.2479,120.815221 44.4909,117.301262 45.7949,113.70065 C41.4089,109.034297 35.6069,105.776316 31.3089,101.022313 C23.9389,100.350996 15.8459,101.107971 10.6769,97.5242915 C1.6899,91.292195 -2.8211,70.458447 1.8979,59.9225486 C4.4149,54.3049964 12.0149,52.2213228 19.0179,51.17849 C20.0729,45.671496 21.5949,40.6296433 23.8459,36.3128931 C19.3829,28.9672464 9.3609,24.6813729 10.2379,15.7640068 C11.1029,6.97512729 31.6739,3.0846736 44.4779,3.0846736 C48.3909,3.0846736 54.0949,4.60559597 57.2079,4.39643179 C60.6819,4.16336314 74.4369,-3.71216613 74.7669,3.52192633 C75.0399,9.52294616 60.7849,8.20222379 58.5249,11.8287322" id="Fill-3"></path>
                        </g>
                        <path d="M131.8325,74.1308719 C127.4245,77.2772987 123.5225,72.3041714 119.5405,70.6328501 C112.7165,67.7682969 103.1075,66.4684909 92.3245,67.1358242 C88.3595,67.3808451 82.0375,69.3011715 81.3515,65.3868133 C80.3065,59.4266303 95.3785,59.81209 101.9825,60.1397805 C114.5165,60.7612969 133.6885,65.7005596 131.8325,74.1308719" id="Fill-6"></path>
                        <path d="M166.9497,81.5630727 C162.5347,83.9077035 159.2087,77.1407444 155.9747,73.6935196 C153.0397,70.5630291 147.3957,67.4175983 147.1957,64.5122082 C147.0617,62.5600093 147.9047,60.842871 150.2687,60.5769337 C154.2457,60.1277287 158.1907,66.0261585 161.2427,69.3209923 C164.7407,73.0959076 169.4957,76.8648469 166.9497,81.5630727" id="Fill-8"></path>
                        <path d="M179.2407,72.3819606 C178.6837,75.8331695 181.9987,79.2883625 185.3867,80.6887665 C187.3517,73.9686203 180.3917,65.2454781 179.2407,72.3819606 M204.7007,62.7633965 C209.2107,74.3421277 205.3487,85.8381893 195.9217,88.1220629 C194.5627,88.4507495 192.3997,87.8451694 190.6537,88.5583196 C188.1847,89.5672878 186.4317,92.6539534 183.1917,94.2426051 C181.1277,95.2545613 164.2397,101.052393 162.5597,95.1171106 C160.4727,87.7445714 180.6837,91.9647076 181.8747,86.8093087 C170.5137,83.7963485 168.8597,59.9805169 184.0697,62.7633965 C189.7207,63.7972652 192.2467,73.1409277 192.4097,81.5632719 C199.8217,81.166856 200.2187,72.1309636 198.9937,64.5124074 C199.7617,62.7624005 202.3657,61.6319179 204.7007,62.7633965" id="Fill-10"></path>
                        <path d="M45.7944,89.8706754 C57.6774,86.3547252 56.7144,103.471327 47.5504,102.987261 C42.2194,102.705388 37.2564,92.3965819 45.7944,89.8706754" id="Fill-12"></path>
                    </g>
                </g>
            </g>
        </g>
    </g>
</svg>